<?xml version="1.0" encoding="UTF-8" standalone="no"?>
<!DOCTYPE svg PUBLIC "-//W3C//DTD SVG 1.1//EN"
 "http://www.w3.org/Graphics/SVG/1.1/DTD/svg11.dtd">
<!-- Generated by graphviz version 12.2.1 (20241206.2353)
 -->
<!-- Pages: 1 -->
<svg width="1887pt" height="332pt"
 viewBox="0.00 0.00 1886.61 332.00" xmlns="http://www.w3.org/2000/svg" xmlns:xlink="http://www.w3.org/1999/xlink">
<g id="graph0" class="graph" transform="scale(1 1) rotate(0) translate(4 328)">
<polygon fill="white" stroke="none" points="-4,4 -4,-328 1882.61,-328 1882.61,4 -4,4"/>
<!-- [root] data.http.todo (expand) -->
<g id="node1" class="node">
<title>[root] data.http.todo (expand)</title>
<polygon fill="none" stroke="black" points="979.7,-108 888.7,-108 888.7,-72 979.7,-72 979.7,-108"/>
<text text-anchor="middle" x="934.2" y="-84.95" font-family="Times New Roman,serif" font-size="14.00">data.http.todo</text>
</g>
<!-- [root] provider[&quot;registry.opentofu.org/hashicorp/http&quot;] -->
<g id="node5" class="node">
<title>[root] provider[&quot;registry.opentofu.org/hashicorp/http&quot;]</title>
<polygon fill="none" stroke="black" points="934.2,-36 666.15,-18 934.2,0 1202.25,-18 934.2,-36"/>
<text text-anchor="middle" x="934.2" y="-12.95" font-family="Times New Roman,serif" font-size="14.00">provider[&quot;registry.opentofu.org/hashicorp/http&quot;]</text>
</g>
<!-- [root] data.http.todo (expand)&#45;&gt;[root] provider[&quot;registry.opentofu.org/hashicorp/http&quot;] -->
<g id="edge1" class="edge">
<title>[root] data.http.todo (expand)&#45;&gt;[root] provider[&quot;registry.opentofu.org/hashicorp/http&quot;]</title>
<path fill="none" stroke="black" d="M934.2,-71.7C934.2,-64.41 934.2,-55.73 934.2,-47.54"/>
<polygon fill="black" stroke="black" points="937.7,-47.62 934.2,-37.62 930.7,-47.62 937.7,-47.62"/>
</g>
<!-- [root] local_file.main&#45;1 (expand) -->
<g id="node2" class="node">
<title>[root] local_file.main&#45;1 (expand)</title>
<polygon fill="none" stroke="black" points="508.08,-180 398.33,-180 398.33,-144 508.08,-144 508.08,-180"/>
<text text-anchor="middle" x="453.2" y="-156.95" font-family="Times New Roman,serif" font-size="14.00">local_file.main&#45;1</text>
</g>
<!-- [root] provider[&quot;registry.opentofu.org/hashicorp/local&quot;] -->
<g id="node6" class="node">
<title>[root] provider[&quot;registry.opentofu.org/hashicorp/local&quot;]</title>
<polygon fill="none" stroke="black" points="597.2,-108 324.09,-90 597.2,-72 870.32,-90 597.2,-108"/>
<text text-anchor="middle" x="597.2" y="-84.95" font-family="Times New Roman,serif" font-size="14.00">provider[&quot;registry.opentofu.org/hashicorp/local&quot;]</text>
</g>
<!-- [root] local_file.main&#45;1 (expand)&#45;&gt;[root] provider[&quot;registry.opentofu.org/hashicorp/local&quot;] -->
<g id="edge2" class="edge">
<title>[root] local_file.main&#45;1 (expand)&#45;&gt;[root] provider[&quot;registry.opentofu.org/hashicorp/local&quot;]</title>
<path fill="none" stroke="black" d="M489.17,-143.52C509.26,-133.75 534.41,-121.53 555.38,-111.33"/>
<polygon fill="black" stroke="black" points="556.78,-114.54 564.25,-107.02 553.72,-108.24 556.78,-114.54"/>
</g>
<!-- [root] var.greeting (expand, reference) -->
<g id="node10" class="node">
<title>[root] var.greeting (expand, reference)</title>
<ellipse fill="none" stroke="black" cx="153.2" cy="-90" rx="153.2" ry="18"/>
<text text-anchor="middle" x="153.2" y="-84.95" font-family="Times New Roman,serif" font-size="14.00">[root] var.greeting (expand, reference)</text>
</g>
<!-- [root] local_file.main&#45;1 (expand)&#45;&gt;[root] var.greeting (expand, reference) -->
<g id="edge3" class="edge">
<title>[root] local_file.main&#45;1 (expand)&#45;&gt;[root] var.greeting (expand, reference)</title>
<path fill="none" stroke="black" d="M397.83,-148.08C350.96,-137.14 283.27,-121.35 230.97,-109.15"/>
<polygon fill="black" stroke="black" points="232.06,-105.81 221.53,-106.94 230.47,-112.62 232.06,-105.81"/>
</g>
<!-- [root] local_file.todo_data (expand) -->
<g id="node3" class="node">
<title>[root] local_file.todo_data (expand)</title>
<polygon fill="none" stroke="black" points="810.2,-180 686.2,-180 686.2,-144 810.2,-144 810.2,-180"/>
<text text-anchor="middle" x="748.2" y="-156.95" font-family="Times New Roman,serif" font-size="14.00">local_file.todo_data</text>
</g>
<!-- [root] local_file.todo_data (expand)&#45;&gt;[root] data.http.todo (expand) -->
<g id="edge4" class="edge">
<title>[root] local_file.todo_data (expand)&#45;&gt;[root] data.http.todo (expand)</title>
<path fill="none" stroke="black" d="M794.66,-143.52C819.81,-134.05 851.09,-122.28 877.65,-112.28"/>
<polygon fill="black" stroke="black" points="878.79,-115.59 886.92,-108.79 876.33,-109.04 878.79,-115.59"/>
</g>
<!-- [root] local_file.todo_data (expand)&#45;&gt;[root] provider[&quot;registry.opentofu.org/hashicorp/local&quot;] -->
<g id="edge5" class="edge">
<title>[root] local_file.todo_data (expand)&#45;&gt;[root] provider[&quot;registry.opentofu.org/hashicorp/local&quot;]</title>
<path fill="none" stroke="black" d="M710.49,-143.52C689.24,-133.67 662.62,-121.33 640.52,-111.08"/>
<polygon fill="black" stroke="black" points="642,-107.91 631.45,-106.88 639.05,-114.26 642,-107.91"/>
</g>
<!-- [root] local_file.todo_headers (expand) -->
<g id="node4" class="node">
<title>[root] local_file.todo_headers (expand)</title>
<polygon fill="none" stroke="black" points="668.58,-180 525.83,-180 525.83,-144 668.58,-144 668.58,-180"/>
<text text-anchor="middle" x="597.2" y="-156.95" font-family="Times New Roman,serif" font-size="14.00">local_file.todo_headers</text>
</g>
<!-- [root] local_file.todo_headers (expand)&#45;&gt;[root] data.http.todo (expand) -->
<g id="edge6" class="edge">
<title>[root] local_file.todo_headers (expand)&#45;&gt;[root] data.http.todo (expand)</title>
<path fill="none" stroke="black" d="M668.71,-145.68C671.57,-145.11 674.41,-144.54 677.2,-144 763.21,-127.2 788.62,-129.3 877.27,-108.3"/>
<polygon fill="black" stroke="black" points="878.03,-111.72 886.93,-105.97 876.39,-104.91 878.03,-111.72"/>
</g>
<!-- [root] local_file.todo_headers (expand)&#45;&gt;[root] provider[&quot;registry.opentofu.org/hashicorp/local&quot;] -->
<g id="edge7" class="edge">
<title>[root] local_file.todo_headers (expand)&#45;&gt;[root] provider[&quot;registry.opentofu.org/hashicorp/local&quot;]</title>
<path fill="none" stroke="black" d="M597.2,-143.7C597.2,-136.41 597.2,-127.73 597.2,-119.54"/>
<polygon fill="black" stroke="black" points="600.7,-119.62 597.2,-109.62 593.7,-119.62 600.7,-119.62"/>
</g>
<!-- [root] var.greeting -->
<g id="node7" class="node">
<title>[root] var.greeting</title>
<polygon fill="none" stroke="black" points="187.45,-36 112.95,-36 112.95,0 193.45,0 193.45,-30 187.45,-36"/>
<polyline fill="none" stroke="black" points="187.45,-36 187.45,-30"/>
<polyline fill="none" stroke="black" points="193.45,-30 187.45,-30"/>
<text text-anchor="middle" x="153.2" y="-12.95" font-family="Times New Roman,serif" font-size="14.00">var.greeting</text>
</g>
<!-- [root] var.region -->
<g id="node8" class="node">
<title>[root] var.region</title>
<polygon fill="none" stroke="black" points="1462.58,-180 1397.83,-180 1397.83,-144 1468.58,-144 1468.58,-174 1462.58,-180"/>
<polyline fill="none" stroke="black" points="1462.58,-180 1462.58,-174"/>
<polyline fill="none" stroke="black" points="1468.58,-174 1462.58,-174"/>
<text text-anchor="middle" x="1433.2" y="-156.95" font-family="Times New Roman,serif" font-size="14.00">var.region</text>
</g>
<!-- [root] var.zone -->
<g id="node9" class="node">
<title>[root] var.zone</title>
<polygon fill="none" stroke="black" points="1763.08,-180 1707.33,-180 1707.33,-144 1769.08,-144 1769.08,-174 1763.08,-180"/>
<polyline fill="none" stroke="black" points="1763.08,-180 1763.08,-174"/>
<polyline fill="none" stroke="black" points="1769.08,-174 1763.08,-174"/>
<text text-anchor="middle" x="1738.2" y="-156.95" font-family="Times New Roman,serif" font-size="14.00">var.zone</text>
</g>
<!-- [root] var.greeting (expand, reference)&#45;&gt;[root] var.greeting -->
<g id="edge16" class="edge">
<title>[root] var.greeting (expand, reference)&#45;&gt;[root] var.greeting</title>
<path fill="none" stroke="black" d="M153.2,-71.7C153.2,-64.41 153.2,-55.73 153.2,-47.54"/>
<polygon fill="black" stroke="black" points="156.7,-47.62 153.2,-37.62 149.7,-47.62 156.7,-47.62"/>
</g>
<!-- [root] provider[&quot;registry.opentofu.org/hashicorp/http&quot;] (close) -->
<g id="node11" class="node">
<title>[root] provider[&quot;registry.opentofu.org/hashicorp/http&quot;] (close)</title>
<ellipse fill="none" stroke="black" cx="1028.2" cy="-234" rx="240.72" ry="18"/>
<text text-anchor="middle" x="1028.2" y="-228.95" font-family="Times New Roman,serif" font-size="14.00">[root] provider[&quot;registry.opentofu.org/hashicorp/http&quot;] (close)</text>
</g>
<!-- [root] provider[&quot;registry.opentofu.org/hashicorp/http&quot;] (close)&#45;&gt;[root] data.http.todo (expand) -->
<g id="edge8" class="edge">
<title>[root] provider[&quot;registry.opentofu.org/hashicorp/http&quot;] (close)&#45;&gt;[root] data.http.todo (expand)</title>
<path fill="none" stroke="black" d="M1016.67,-215.59C1000.45,-191.08 970.74,-146.19 951.76,-117.52"/>
<polygon fill="black" stroke="black" points="954.8,-115.78 946.36,-109.37 948.97,-119.64 954.8,-115.78"/>
</g>
<!-- [root] provider[&quot;registry.opentofu.org/hashicorp/local&quot;] (close) -->
<g id="node12" class="node">
<title>[root] provider[&quot;registry.opentofu.org/hashicorp/local&quot;] (close)</title>
<ellipse fill="none" stroke="black" cx="525.2" cy="-234" rx="244.3" ry="18"/>
<text text-anchor="middle" x="525.2" y="-228.95" font-family="Times New Roman,serif" font-size="14.00">[root] provider[&quot;registry.opentofu.org/hashicorp/local&quot;] (close)</text>
</g>
<!-- [root] provider[&quot;registry.opentofu.org/hashicorp/local&quot;] (close)&#45;&gt;[root] local_file.main&#45;1 (expand) -->
<g id="edge9" class="edge">
<title>[root] provider[&quot;registry.opentofu.org/hashicorp/local&quot;] (close)&#45;&gt;[root] local_file.main&#45;1 (expand)</title>
<path fill="none" stroke="black" d="M507.4,-215.7C498.92,-207.45 488.61,-197.43 479.27,-188.35"/>
<polygon fill="black" stroke="black" points="481.74,-185.86 472.13,-181.4 476.86,-190.88 481.74,-185.86"/>
</g>
<!-- [root] provider[&quot;registry.opentofu.org/hashicorp/local&quot;] (close)&#45;&gt;[root] local_file.todo_data (expand) -->
<g id="edge10" class="edge">
<title>[root] provider[&quot;registry.opentofu.org/hashicorp/local&quot;] (close)&#45;&gt;[root] local_file.todo_data (expand)</title>
<path fill="none" stroke="black" d="M579.47,-215.97C610.28,-206.29 649.09,-194.11 681.72,-183.87"/>
<polygon fill="black" stroke="black" points="682.59,-187.26 691.08,-180.93 680.49,-180.59 682.59,-187.26"/>
</g>
<!-- [root] provider[&quot;registry.opentofu.org/hashicorp/local&quot;] (close)&#45;&gt;[root] local_file.todo_headers (expand) -->
<g id="edge11" class="edge">
<title>[root] provider[&quot;registry.opentofu.org/hashicorp/local&quot;] (close)&#45;&gt;[root] local_file.todo_headers (expand)</title>
<path fill="none" stroke="black" d="M543,-215.7C551.48,-207.45 561.79,-197.43 571.13,-188.35"/>
<polygon fill="black" stroke="black" points="573.54,-190.88 578.27,-181.4 568.66,-185.86 573.54,-190.88"/>
</g>
<!-- [root] root -->
<g id="node13" class="node">
<title>[root] root</title>
<ellipse fill="none" stroke="black" cx="1230.2" cy="-306" rx="49.3" ry="18"/>
<text text-anchor="middle" x="1230.2" y="-300.95" font-family="Times New Roman,serif" font-size="14.00">[root] root</text>
</g>
<!-- [root] root&#45;&gt;[root] provider[&quot;registry.opentofu.org/hashicorp/http&quot;] (close) -->
<g id="edge12" class="edge">
<title>[root] root&#45;&gt;[root] provider[&quot;registry.opentofu.org/hashicorp/http&quot;] (close)</title>
<path fill="none" stroke="black" d="M1195.48,-292.97C1165.93,-282.73 1122.84,-267.8 1087.8,-255.65"/>
<polygon fill="black" stroke="black" points="1089.23,-252.44 1078.63,-252.48 1086.94,-259.06 1089.23,-252.44"/>
</g>
<!-- [root] root&#45;&gt;[root] provider[&quot;registry.opentofu.org/hashicorp/local&quot;] (close) -->
<g id="edge13" class="edge">
<title>[root] root&#45;&gt;[root] provider[&quot;registry.opentofu.org/hashicorp/local&quot;] (close)</title>
<path fill="none" stroke="black" d="M1182.85,-300.3C1081.25,-290.21 838.54,-266.11 678.11,-250.18"/>
<polygon fill="black" stroke="black" points="678.51,-246.7 668.21,-249.2 677.82,-253.67 678.51,-246.7"/>
</g>
<!-- [root] var.region (expand, reference) -->
<g id="node14" class="node">
<title>[root] var.region (expand, reference)</title>
<ellipse fill="none" stroke="black" cx="1433.2" cy="-234" rx="146.55" ry="18"/>
<text text-anchor="middle" x="1433.2" y="-228.95" font-family="Times New Roman,serif" font-size="14.00">[root] var.region (expand, reference)</text>
</g>
<!-- [root] root&#45;&gt;[root] var.region (expand, reference) -->
<g id="edge14" class="edge">
<title>[root] root&#45;&gt;[root] var.region (expand, reference)</title>
<path fill="none" stroke="black" d="M1265.1,-292.97C1295.2,-282.59 1339.29,-267.38 1374.77,-255.15"/>
<polygon fill="black" stroke="black" points="1375.73,-258.52 1384.04,-251.95 1373.45,-251.9 1375.73,-258.52"/>
</g>
<!-- [root] var.zone (expand, reference) -->
<g id="node15" class="node">
<title>[root] var.zone (expand, reference)</title>
<ellipse fill="none" stroke="black" cx="1738.2" cy="-234" rx="140.41" ry="18"/>
<text text-anchor="middle" x="1738.2" y="-228.95" font-family="Times New Roman,serif" font-size="14.00">[root] var.zone (expand, reference)</text>
</g>
<!-- [root] root&#45;&gt;[root] var.zone (expand, reference) -->
<g id="edge15" class="edge">
<title>[root] root&#45;&gt;[root] var.zone (expand, reference)</title>
<path fill="none" stroke="black" d="M1275.73,-298.73C1355.9,-287.68 1524.16,-264.49 1634.09,-249.35"/>
<polygon fill="black" stroke="black" points="1634.28,-252.85 1643.71,-248.02 1633.32,-245.92 1634.28,-252.85"/>
</g>
<!-- [root] var.region (expand, reference)&#45;&gt;[root] var.region -->
<g id="edge17" class="edge">
<title>[root] var.region (expand, reference)&#45;&gt;[root] var.region</title>
<path fill="none" stroke="black" d="M1433.2,-215.7C1433.2,-208.41 1433.2,-199.73 1433.2,-191.54"/>
<polygon fill="black" stroke="black" points="1436.7,-191.62 1433.2,-181.62 1429.7,-191.62 1436.7,-191.62"/>
</g>
<!-- [root] var.zone (expand, reference)&#45;&gt;[root] var.zone -->
<g id="edge18" class="edge">
<title>[root] var.zone (expand, reference)&#45;&gt;[root] var.zone</title>
<path fill="none" stroke="black" d="M1738.2,-215.7C1738.2,-208.41 1738.2,-199.73 1738.2,-191.54"/>
<polygon fill="black" stroke="black" points="1741.7,-191.62 1738.2,-181.62 1734.7,-191.62 1741.7,-191.62"/>
</g>
</g>
</svg>
