<?xml version="1.0" encoding="UTF-8" standalone="no"?>
<!DOCTYPE svg PUBLIC "-//W3C//DTD SVG 1.1//EN"
 "http://www.w3.org/Graphics/SVG/1.1/DTD/svg11.dtd">
<!-- Generated by graphviz version 12.2.1 (20241206.2353)
 -->
<!-- Pages: 1 -->
<svg width="962pt" height="332pt"
 viewBox="0.00 0.00 961.72 332.00" xmlns="http://www.w3.org/2000/svg" xmlns:xlink="http://www.w3.org/1999/xlink">
<g id="graph0" class="graph" transform="scale(1 1) rotate(0) translate(4 328)">
<polygon fill="white" stroke="none" points="-4,4 -4,-328 957.72,-328 957.72,4 -4,4"/>
<!-- [root] google_compute_instance.app (expand) -->
<g id="node1" class="node">
<title>[root] google_compute_instance.app (expand)</title>
<polygon fill="none" stroke="black" points="594.75,-180 413.75,-180 413.75,-144 594.75,-144 594.75,-180"/>
<text text-anchor="middle" x="504.25" y="-156.95" font-family="Times New Roman,serif" font-size="14.00">google_compute_instance.app</text>
</g>
<!-- [root] provider[&quot;registry.opentofu.org/hashicorp/google&quot;] -->
<g id="node2" class="node">
<title>[root] provider[&quot;registry.opentofu.org/hashicorp/google&quot;]</title>
<polygon fill="none" stroke="black" points="283.25,-108 0,-90 283.25,-72 566.5,-90 283.25,-108"/>
<text text-anchor="middle" x="283.25" y="-84.95" font-family="Times New Roman,serif" font-size="14.00">provider[&quot;registry.opentofu.org/hashicorp/google&quot;]</text>
</g>
<!-- [root] google_compute_instance.app (expand)&#45;&gt;[root] provider[&quot;registry.opentofu.org/hashicorp/google&quot;] -->
<g id="edge1" class="edge">
<title>[root] google_compute_instance.app (expand)&#45;&gt;[root] provider[&quot;registry.opentofu.org/hashicorp/google&quot;]</title>
<path fill="none" stroke="black" d="M449.05,-143.52C415.71,-132.96 373.32,-119.53 339.75,-108.9"/>
<polygon fill="black" stroke="black" points="341.22,-105.69 330.63,-106.01 339.1,-112.36 341.22,-105.69"/>
</g>
<!-- [root] var.zone (expand, reference) -->
<g id="node4" class="node">
<title>[root] var.zone (expand, reference)</title>
<ellipse fill="none" stroke="black" cx="725.25" cy="-90" rx="140.41" ry="18"/>
<text text-anchor="middle" x="725.25" y="-84.95" font-family="Times New Roman,serif" font-size="14.00">[root] var.zone (expand, reference)</text>
</g>
<!-- [root] google_compute_instance.app (expand)&#45;&gt;[root] var.zone (expand, reference) -->
<g id="edge2" class="edge">
<title>[root] google_compute_instance.app (expand)&#45;&gt;[root] var.zone (expand, reference)</title>
<path fill="none" stroke="black" d="M559.45,-143.52C591.03,-133.51 630.75,-120.93 663.38,-110.6"/>
<polygon fill="black" stroke="black" points="664.24,-114 672.72,-107.64 662.13,-107.32 664.24,-114"/>
</g>
<!-- [root] var.zone -->
<g id="node3" class="node">
<title>[root] var.zone</title>
<polygon fill="none" stroke="black" points="750.12,-36 694.37,-36 694.37,0 756.12,0 756.12,-30 750.12,-36"/>
<polyline fill="none" stroke="black" points="750.12,-36 750.12,-30"/>
<polyline fill="none" stroke="black" points="756.12,-30 750.12,-30"/>
<text text-anchor="middle" x="725.25" y="-12.95" font-family="Times New Roman,serif" font-size="14.00">var.zone</text>
</g>
<!-- [root] var.zone (expand, reference)&#45;&gt;[root] var.zone -->
<g id="edge7" class="edge">
<title>[root] var.zone (expand, reference)&#45;&gt;[root] var.zone</title>
<path fill="none" stroke="black" d="M725.25,-71.7C725.25,-64.41 725.25,-55.73 725.25,-47.54"/>
<polygon fill="black" stroke="black" points="728.75,-47.62 725.25,-37.62 721.75,-47.62 728.75,-47.62"/>
</g>
<!-- [root] output.instance (expand) -->
<g id="node5" class="node">
<title>[root] output.instance (expand)</title>
<ellipse fill="none" stroke="black" cx="306.25" cy="-234" rx="126.08" ry="18"/>
<text text-anchor="middle" x="306.25" y="-228.95" font-family="Times New Roman,serif" font-size="14.00">[root] output.instance (expand)</text>
</g>
<!-- [root] output.instance (expand)&#45;&gt;[root] google_compute_instance.app (expand) -->
<g id="edge3" class="edge">
<title>[root] output.instance (expand)&#45;&gt;[root] google_compute_instance.app (expand)</title>
<path fill="none" stroke="black" d="M352.17,-216.76C379.54,-207.09 414.6,-194.7 444.15,-184.25"/>
<polygon fill="black" stroke="black" points="445.08,-187.63 453.34,-181 442.74,-181.03 445.08,-187.63"/>
</g>
<!-- [root] provider[&quot;registry.opentofu.org/hashicorp/google&quot;] (close) -->
<g id="node6" class="node">
<title>[root] provider[&quot;registry.opentofu.org/hashicorp/google&quot;] (close)</title>
<ellipse fill="none" stroke="black" cx="702.25" cy="-234" rx="251.47" ry="18"/>
<text text-anchor="middle" x="702.25" y="-228.95" font-family="Times New Roman,serif" font-size="14.00">[root] provider[&quot;registry.opentofu.org/hashicorp/google&quot;] (close)</text>
</g>
<!-- [root] provider[&quot;registry.opentofu.org/hashicorp/google&quot;] (close)&#45;&gt;[root] google_compute_instance.app (expand) -->
<g id="edge4" class="edge">
<title>[root] provider[&quot;registry.opentofu.org/hashicorp/google&quot;] (close)&#45;&gt;[root] google_compute_instance.app (expand)</title>
<path fill="none" stroke="black" d="M653.81,-215.88C626.81,-206.33 592.94,-194.36 564.27,-184.22"/>
<polygon fill="black" stroke="black" points="565.58,-180.97 554.99,-180.94 563.25,-187.57 565.58,-180.97"/>
</g>
<!-- [root] root -->
<g id="node7" class="node">
<title>[root] root</title>
<ellipse fill="none" stroke="black" cx="504.25" cy="-306" rx="49.3" ry="18"/>
<text text-anchor="middle" x="504.25" y="-300.95" font-family="Times New Roman,serif" font-size="14.00">[root] root</text>
</g>
<!-- [root] root&#45;&gt;[root] output.instance (expand) -->
<g id="edge5" class="edge">
<title>[root] root&#45;&gt;[root] output.instance (expand)</title>
<path fill="none" stroke="black" d="M469.76,-292.81C440.14,-282.33 396.87,-267.04 362.28,-254.81"/>
<polygon fill="black" stroke="black" points="363.88,-251.66 353.28,-251.63 361.54,-258.26 363.88,-251.66"/>
</g>
<!-- [root] root&#45;&gt;[root] provider[&quot;registry.opentofu.org/hashicorp/google&quot;] (close) -->
<g id="edge6" class="edge">
<title>[root] root&#45;&gt;[root] provider[&quot;registry.opentofu.org/hashicorp/google&quot;] (close)</title>
<path fill="none" stroke="black" d="M538.74,-292.81C567.53,-282.63 609.22,-267.89 643.3,-255.84"/>
<polygon fill="black" stroke="black" points="644.38,-259.17 652.64,-252.54 642.04,-252.57 644.38,-259.17"/>
</g>
</g>
</svg>
