<?xml version="1.0" encoding="UTF-8" standalone="no"?>
<!DOCTYPE svg PUBLIC "-//W3C//DTD SVG 1.1//EN"
 "http://www.w3.org/Graphics/SVG/1.1/DTD/svg11.dtd">
<!-- Generated by graphviz version 12.2.1 (20241206.2353)
 -->
<!-- Pages: 1 -->
<svg width="1350pt" height="260pt"
 viewBox="0.00 0.00 1350.48 260.00" xmlns="http://www.w3.org/2000/svg" xmlns:xlink="http://www.w3.org/1999/xlink">
<g id="graph0" class="graph" transform="scale(1 1) rotate(0) translate(4 256)">
<polygon fill="white" stroke="none" points="-4,4 -4,-256 1346.48,-256 1346.48,4 -4,4"/>
<!-- [root] google_compute_firewall.allow_http (expand) -->
<g id="node1" class="node">
<title>[root] google_compute_firewall.allow_http (expand)</title>
<polygon fill="none" stroke="black" points="811.58,-108 594.58,-108 594.58,-72 811.58,-72 811.58,-108"/>
<text text-anchor="middle" x="703.08" y="-84.95" font-family="Times New Roman,serif" font-size="14.00">google_compute_firewall.allow_http</text>
</g>
<!-- [root] provider[&quot;registry.opentofu.org/hashicorp/google&quot;] -->
<g id="node3" class="node">
<title>[root] provider[&quot;registry.opentofu.org/hashicorp/google&quot;]</title>
<polygon fill="none" stroke="black" points="549.08,-36 265.83,-18 549.08,0 832.32,-18 549.08,-36"/>
<text text-anchor="middle" x="549.08" y="-12.95" font-family="Times New Roman,serif" font-size="14.00">provider[&quot;registry.opentofu.org/hashicorp/google&quot;]</text>
</g>
<!-- [root] google_compute_firewall.allow_http (expand)&#45;&gt;[root] provider[&quot;registry.opentofu.org/hashicorp/google&quot;] -->
<g id="edge1" class="edge">
<title>[root] google_compute_firewall.allow_http (expand)&#45;&gt;[root] provider[&quot;registry.opentofu.org/hashicorp/google&quot;]</title>
<path fill="none" stroke="black" d="M664.61,-71.52C642.85,-61.62 615.55,-49.21 592.95,-38.94"/>
<polygon fill="black" stroke="black" points="594.54,-35.82 583.99,-34.87 591.64,-42.19 594.54,-35.82"/>
</g>
<!-- [root] google_compute_instance.app (expand) -->
<g id="node2" class="node">
<title>[root] google_compute_instance.app (expand)</title>
<polygon fill="none" stroke="black" points="531.58,-108 350.58,-108 350.58,-72 531.58,-72 531.58,-108"/>
<text text-anchor="middle" x="441.08" y="-84.95" font-family="Times New Roman,serif" font-size="14.00">google_compute_instance.app</text>
</g>
<!-- [root] google_compute_instance.app (expand)&#45;&gt;[root] provider[&quot;registry.opentofu.org/hashicorp/google&quot;] -->
<g id="edge2" class="edge">
<title>[root] google_compute_instance.app (expand)&#45;&gt;[root] provider[&quot;registry.opentofu.org/hashicorp/google&quot;]</title>
<path fill="none" stroke="black" d="M468.05,-71.52C482.3,-62.28 499.93,-50.85 515.1,-41.02"/>
<polygon fill="black" stroke="black" points="516.9,-44.03 523.39,-35.65 513.09,-38.15 516.9,-44.03"/>
</g>
<!-- [root] var.zone -->
<g id="node4" class="node">
<title>[root] var.zone</title>
<polygon fill="none" stroke="black" points="1226.95,-108 1171.2,-108 1171.2,-72 1232.95,-72 1232.95,-102 1226.95,-108"/>
<polyline fill="none" stroke="black" points="1226.95,-108 1226.95,-102"/>
<polyline fill="none" stroke="black" points="1232.95,-102 1226.95,-102"/>
<text text-anchor="middle" x="1202.08" y="-84.95" font-family="Times New Roman,serif" font-size="14.00">var.zone</text>
</g>
<!-- [root] output.instance (expand) -->
<g id="node5" class="node">
<title>[root] output.instance (expand)</title>
<ellipse fill="none" stroke="black" cx="126.08" cy="-162" rx="126.08" ry="18"/>
<text text-anchor="middle" x="126.08" y="-156.95" font-family="Times New Roman,serif" font-size="14.00">[root] output.instance (expand)</text>
</g>
<!-- [root] output.instance (expand)&#45;&gt;[root] google_compute_instance.app (expand) -->
<g id="edge3" class="edge">
<title>[root] output.instance (expand)&#45;&gt;[root] google_compute_instance.app (expand)</title>
<path fill="none" stroke="black" d="M192.11,-146.33C238.41,-136.04 300.86,-122.16 351.63,-110.88"/>
<polygon fill="black" stroke="black" points="352.12,-114.35 361.12,-108.77 350.6,-107.52 352.12,-114.35"/>
</g>
<!-- [root] output.network (expand) -->
<g id="node6" class="node">
<title>[root] output.network (expand)</title>
<ellipse fill="none" stroke="black" cx="396.08" cy="-162" rx="126.08" ry="18"/>
<text text-anchor="middle" x="396.08" y="-156.95" font-family="Times New Roman,serif" font-size="14.00">[root] output.network (expand)</text>
</g>
<!-- [root] output.network (expand)&#45;&gt;[root] google_compute_instance.app (expand) -->
<g id="edge4" class="edge">
<title>[root] output.network (expand)&#45;&gt;[root] google_compute_instance.app (expand)</title>
<path fill="none" stroke="black" d="M407.2,-143.7C412.27,-135.81 418.38,-126.3 424.01,-117.55"/>
<polygon fill="black" stroke="black" points="426.8,-119.68 429.26,-109.38 420.91,-115.9 426.8,-119.68"/>
</g>
<!-- [root] provider[&quot;registry.opentofu.org/hashicorp/google&quot;] (close) -->
<g id="node7" class="node">
<title>[root] provider[&quot;registry.opentofu.org/hashicorp/google&quot;] (close)</title>
<ellipse fill="none" stroke="black" cx="792.08" cy="-162" rx="251.47" ry="18"/>
<text text-anchor="middle" x="792.08" y="-156.95" font-family="Times New Roman,serif" font-size="14.00">[root] provider[&quot;registry.opentofu.org/hashicorp/google&quot;] (close)</text>
</g>
<!-- [root] provider[&quot;registry.opentofu.org/hashicorp/google&quot;] (close)&#45;&gt;[root] google_compute_firewall.allow_http (expand) -->
<g id="edge5" class="edge">
<title>[root] provider[&quot;registry.opentofu.org/hashicorp/google&quot;] (close)&#45;&gt;[root] google_compute_firewall.allow_http (expand)</title>
<path fill="none" stroke="black" d="M770.08,-143.7C759.16,-135.11 745.8,-124.61 733.89,-115.24"/>
<polygon fill="black" stroke="black" points="736.34,-112.71 726.32,-109.28 732.02,-118.22 736.34,-112.71"/>
</g>
<!-- [root] provider[&quot;registry.opentofu.org/hashicorp/google&quot;] (close)&#45;&gt;[root] google_compute_instance.app (expand) -->
<g id="edge6" class="edge">
<title>[root] provider[&quot;registry.opentofu.org/hashicorp/google&quot;] (close)&#45;&gt;[root] google_compute_instance.app (expand)</title>
<path fill="none" stroke="black" d="M709.78,-144.59C658.99,-134.46 593.52,-121.4 539.93,-110.71"/>
<polygon fill="black" stroke="black" points="540.66,-107.29 530.16,-108.77 539.29,-114.16 540.66,-107.29"/>
</g>
<!-- [root] root -->
<g id="node8" class="node">
<title>[root] root</title>
<ellipse fill="none" stroke="black" cx="594.08" cy="-234" rx="49.3" ry="18"/>
<text text-anchor="middle" x="594.08" y="-228.95" font-family="Times New Roman,serif" font-size="14.00">[root] root</text>
</g>
<!-- [root] root&#45;&gt;[root] output.instance (expand) -->
<g id="edge7" class="edge">
<title>[root] root&#45;&gt;[root] output.instance (expand)</title>
<path fill="none" stroke="black" d="M549.2,-226.29C474.3,-215.09 322.19,-192.33 222.23,-177.38"/>
<polygon fill="black" stroke="black" points="222.82,-173.93 212.41,-175.91 221.78,-180.85 222.82,-173.93"/>
</g>
<!-- [root] root&#45;&gt;[root] output.network (expand) -->
<g id="edge8" class="edge">
<title>[root] root&#45;&gt;[root] output.network (expand)</title>
<path fill="none" stroke="black" d="M559.59,-220.81C529.97,-210.33 486.7,-195.04 452.11,-182.81"/>
<polygon fill="black" stroke="black" points="453.7,-179.66 443.11,-179.63 451.37,-186.26 453.7,-179.66"/>
</g>
<!-- [root] root&#45;&gt;[root] provider[&quot;registry.opentofu.org/hashicorp/google&quot;] (close) -->
<g id="edge9" class="edge">
<title>[root] root&#45;&gt;[root] provider[&quot;registry.opentofu.org/hashicorp/google&quot;] (close)</title>
<path fill="none" stroke="black" d="M628.56,-220.81C657.36,-210.63 699.05,-195.89 733.12,-183.84"/>
<polygon fill="black" stroke="black" points="734.2,-187.17 742.47,-180.54 731.87,-180.57 734.2,-187.17"/>
</g>
<!-- [root] var.zone (expand, reference) -->
<g id="node9" class="node">
<title>[root] var.zone (expand, reference)</title>
<ellipse fill="none" stroke="black" cx="1202.08" cy="-162" rx="140.41" ry="18"/>
<text text-anchor="middle" x="1202.08" y="-156.95" font-family="Times New Roman,serif" font-size="14.00">[root] var.zone (expand, reference)</text>
</g>
<!-- [root] root&#45;&gt;[root] var.zone (expand, reference) -->
<g id="edge10" class="edge">
<title>[root] root&#45;&gt;[root] var.zone (expand, reference)</title>
<path fill="none" stroke="black" d="M640.77,-227.62C735.84,-216.68 954.23,-191.54 1088.85,-176.04"/>
<polygon fill="black" stroke="black" points="1088.96,-179.55 1098.49,-174.93 1088.16,-172.59 1088.96,-179.55"/>
</g>
<!-- [root] var.zone (expand, reference)&#45;&gt;[root] var.zone -->
<g id="edge11" class="edge">
<title>[root] var.zone (expand, reference)&#45;&gt;[root] var.zone</title>
<path fill="none" stroke="black" d="M1202.08,-143.7C1202.08,-136.41 1202.08,-127.73 1202.08,-119.54"/>
<polygon fill="black" stroke="black" points="1205.58,-119.62 1202.08,-109.62 1198.58,-119.62 1205.58,-119.62"/>
</g>
</g>
</svg>
