<?xml version="1.0" encoding="UTF-8" standalone="no"?>
<!DOCTYPE svg PUBLIC "-//W3C//DTD SVG 1.1//EN"
 "http://www.w3.org/Graphics/SVG/1.1/DTD/svg11.dtd">
<!-- Generated by graphviz version 12.2.1 (20241206.2353)
 -->
<!-- Pages: 1 -->
<svg width="1083pt" height="332pt"
 viewBox="0.00 0.00 1083.32 332.00" xmlns="http://www.w3.org/2000/svg" xmlns:xlink="http://www.w3.org/1999/xlink">
<g id="graph0" class="graph" transform="scale(1 1) rotate(0) translate(4 328)">
<polygon fill="white" stroke="none" points="-4,4 -4,-328 1079.32,-328 1079.32,4 -4,4"/>
<!-- [root] google_compute_firewall.allow_http (expand) -->
<g id="node1" class="node">
<title>[root] google_compute_firewall.allow_http (expand)</title>
<polygon fill="none" stroke="black" points="900.58,-180 683.58,-180 683.58,-144 900.58,-144 900.58,-180"/>
<text text-anchor="middle" x="792.08" y="-156.95" font-family="Times New Roman,serif" font-size="14.00">google_compute_firewall.allow_http</text>
</g>
<!-- [root] provider[&quot;registry.opentofu.org/hashicorp/google&quot;] -->
<g id="node3" class="node">
<title>[root] provider[&quot;registry.opentofu.org/hashicorp/google&quot;]</title>
<polygon fill="none" stroke="black" points="792.08,-108 508.83,-90 792.08,-72 1075.32,-90 792.08,-108"/>
<text text-anchor="middle" x="792.08" y="-84.95" font-family="Times New Roman,serif" font-size="14.00">provider[&quot;registry.opentofu.org/hashicorp/google&quot;]</text>
</g>
<!-- [root] google_compute_firewall.allow_http (expand)&#45;&gt;[root] provider[&quot;registry.opentofu.org/hashicorp/google&quot;] -->
<g id="edge1" class="edge">
<title>[root] google_compute_firewall.allow_http (expand)&#45;&gt;[root] provider[&quot;registry.opentofu.org/hashicorp/google&quot;]</title>
<path fill="none" stroke="black" d="M792.08,-143.7C792.08,-136.41 792.08,-127.73 792.08,-119.54"/>
<polygon fill="black" stroke="black" points="795.58,-119.62 792.08,-109.62 788.58,-119.62 795.58,-119.62"/>
</g>
<!-- [root] google_compute_instance.app (expand) -->
<g id="node2" class="node">
<title>[root] google_compute_instance.app (expand)</title>
<polygon fill="none" stroke="black" points="486.58,-180 305.58,-180 305.58,-144 486.58,-144 486.58,-180"/>
<text text-anchor="middle" x="396.08" y="-156.95" font-family="Times New Roman,serif" font-size="14.00">google_compute_instance.app</text>
</g>
<!-- [root] google_compute_instance.app (expand)&#45;&gt;[root] provider[&quot;registry.opentofu.org/hashicorp/google&quot;] -->
<g id="edge2" class="edge">
<title>[root] google_compute_instance.app (expand)&#45;&gt;[root] provider[&quot;registry.opentofu.org/hashicorp/google&quot;]</title>
<path fill="none" stroke="black" d="M486.93,-144.94C553.63,-133.15 643.54,-117.26 708.47,-105.78"/>
<polygon fill="black" stroke="black" points="708.75,-109.28 717.99,-104.1 707.53,-102.39 708.75,-109.28"/>
</g>
<!-- [root] var.zone (expand, reference) -->
<g id="node5" class="node">
<title>[root] var.zone (expand, reference)</title>
<ellipse fill="none" stroke="black" cx="350.08" cy="-90" rx="140.41" ry="18"/>
<text text-anchor="middle" x="350.08" y="-84.95" font-family="Times New Roman,serif" font-size="14.00">[root] var.zone (expand, reference)</text>
</g>
<!-- [root] google_compute_instance.app (expand)&#45;&gt;[root] var.zone (expand, reference) -->
<g id="edge3" class="edge">
<title>[root] google_compute_instance.app (expand)&#45;&gt;[root] var.zone (expand, reference)</title>
<path fill="none" stroke="black" d="M384.7,-143.7C379.52,-135.81 373.28,-126.3 367.52,-117.55"/>
<polygon fill="black" stroke="black" points="370.56,-115.8 362.15,-109.37 364.71,-119.65 370.56,-115.8"/>
</g>
<!-- [root] var.zone -->
<g id="node4" class="node">
<title>[root] var.zone</title>
<polygon fill="none" stroke="black" points="374.95,-36 319.2,-36 319.2,0 380.95,0 380.95,-30 374.95,-36"/>
<polyline fill="none" stroke="black" points="374.95,-36 374.95,-30"/>
<polyline fill="none" stroke="black" points="380.95,-30 374.95,-30"/>
<text text-anchor="middle" x="350.08" y="-12.95" font-family="Times New Roman,serif" font-size="14.00">var.zone</text>
</g>
<!-- [root] var.zone (expand, reference)&#45;&gt;[root] var.zone -->
<g id="edge11" class="edge">
<title>[root] var.zone (expand, reference)&#45;&gt;[root] var.zone</title>
<path fill="none" stroke="black" d="M350.08,-71.7C350.08,-64.41 350.08,-55.73 350.08,-47.54"/>
<polygon fill="black" stroke="black" points="353.58,-47.62 350.08,-37.62 346.58,-47.62 353.58,-47.62"/>
</g>
<!-- [root] output.instance (expand) -->
<g id="node6" class="node">
<title>[root] output.instance (expand)</title>
<ellipse fill="none" stroke="black" cx="126.08" cy="-234" rx="126.08" ry="18"/>
<text text-anchor="middle" x="126.08" y="-228.95" font-family="Times New Roman,serif" font-size="14.00">[root] output.instance (expand)</text>
</g>
<!-- [root] output.instance (expand)&#45;&gt;[root] google_compute_instance.app (expand) -->
<g id="edge4" class="edge">
<title>[root] output.instance (expand)&#45;&gt;[root] google_compute_instance.app (expand)</title>
<path fill="none" stroke="black" d="M184.99,-217.72C223.88,-207.64 275.27,-194.32 317.61,-183.34"/>
<polygon fill="black" stroke="black" points="318.46,-186.74 327.26,-180.84 316.7,-179.96 318.46,-186.74"/>
</g>
<!-- [root] output.network (expand) -->
<g id="node7" class="node">
<title>[root] output.network (expand)</title>
<ellipse fill="none" stroke="black" cx="396.08" cy="-234" rx="126.08" ry="18"/>
<text text-anchor="middle" x="396.08" y="-228.95" font-family="Times New Roman,serif" font-size="14.00">[root] output.network (expand)</text>
</g>
<!-- [root] output.network (expand)&#45;&gt;[root] google_compute_instance.app (expand) -->
<g id="edge5" class="edge">
<title>[root] output.network (expand)&#45;&gt;[root] google_compute_instance.app (expand)</title>
<path fill="none" stroke="black" d="M396.08,-215.7C396.08,-208.41 396.08,-199.73 396.08,-191.54"/>
<polygon fill="black" stroke="black" points="399.58,-191.62 396.08,-181.62 392.58,-191.62 399.58,-191.62"/>
</g>
<!-- [root] provider[&quot;registry.opentofu.org/hashicorp/google&quot;] (close) -->
<g id="node8" class="node">
<title>[root] provider[&quot;registry.opentofu.org/hashicorp/google&quot;] (close)</title>
<ellipse fill="none" stroke="black" cx="792.08" cy="-234" rx="251.47" ry="18"/>
<text text-anchor="middle" x="792.08" y="-228.95" font-family="Times New Roman,serif" font-size="14.00">[root] provider[&quot;registry.opentofu.org/hashicorp/google&quot;] (close)</text>
</g>
<!-- [root] provider[&quot;registry.opentofu.org/hashicorp/google&quot;] (close)&#45;&gt;[root] google_compute_firewall.allow_http (expand) -->
<g id="edge6" class="edge">
<title>[root] provider[&quot;registry.opentofu.org/hashicorp/google&quot;] (close)&#45;&gt;[root] google_compute_firewall.allow_http (expand)</title>
<path fill="none" stroke="black" d="M792.08,-215.7C792.08,-208.41 792.08,-199.73 792.08,-191.54"/>
<polygon fill="black" stroke="black" points="795.58,-191.62 792.08,-181.62 788.58,-191.62 795.58,-191.62"/>
</g>
<!-- [root] provider[&quot;registry.opentofu.org/hashicorp/google&quot;] (close)&#45;&gt;[root] google_compute_instance.app (expand) -->
<g id="edge7" class="edge">
<title>[root] provider[&quot;registry.opentofu.org/hashicorp/google&quot;] (close)&#45;&gt;[root] google_compute_instance.app (expand)</title>
<path fill="none" stroke="black" d="M700.73,-216.85C640.18,-206.15 560.66,-192.09 498.05,-181.03"/>
<polygon fill="black" stroke="black" points="498.91,-177.62 488.45,-179.33 497.69,-184.52 498.91,-177.62"/>
</g>
<!-- [root] root -->
<g id="node9" class="node">
<title>[root] root</title>
<ellipse fill="none" stroke="black" cx="396.08" cy="-306" rx="49.3" ry="18"/>
<text text-anchor="middle" x="396.08" y="-300.95" font-family="Times New Roman,serif" font-size="14.00">[root] root</text>
</g>
<!-- [root] root&#45;&gt;[root] output.instance (expand) -->
<g id="edge8" class="edge">
<title>[root] root&#45;&gt;[root] output.instance (expand)</title>
<path fill="none" stroke="black" d="M356.82,-294.82C314.78,-283.92 247.23,-266.41 196.05,-253.14"/>
<polygon fill="black" stroke="black" points="197.09,-249.8 186.53,-250.67 195.34,-256.57 197.09,-249.8"/>
</g>
<!-- [root] root&#45;&gt;[root] output.network (expand) -->
<g id="edge9" class="edge">
<title>[root] root&#45;&gt;[root] output.network (expand)</title>
<path fill="none" stroke="black" d="M396.08,-287.7C396.08,-280.41 396.08,-271.73 396.08,-263.54"/>
<polygon fill="black" stroke="black" points="399.58,-263.62 396.08,-253.62 392.58,-263.62 399.58,-263.62"/>
</g>
<!-- [root] root&#45;&gt;[root] provider[&quot;registry.opentofu.org/hashicorp/google&quot;] (close) -->
<g id="edge10" class="edge">
<title>[root] root&#45;&gt;[root] provider[&quot;registry.opentofu.org/hashicorp/google&quot;] (close)</title>
<path fill="none" stroke="black" d="M439.59,-297.31C499.27,-286.76 608.33,-267.48 689.4,-253.15"/>
<polygon fill="black" stroke="black" points="689.92,-256.61 699.15,-251.43 688.7,-249.72 689.92,-256.61"/>
</g>
</g>
</svg>
