<?xml version="1.0" encoding="UTF-8" standalone="no"?>
<!DOCTYPE svg PUBLIC "-//W3C//DTD SVG 1.1//EN"
 "http://www.w3.org/Graphics/SVG/1.1/DTD/svg11.dtd">
<!-- Generated by graphviz version 12.2.1 (20241206.2353)
 -->
<!-- Pages: 1 -->
<svg width="1052pt" height="404pt"
 viewBox="0.00 0.00 1051.54 404.00" xmlns="http://www.w3.org/2000/svg" xmlns:xlink="http://www.w3.org/1999/xlink">
<g id="graph0" class="graph" transform="scale(1 1) rotate(0) translate(4 400)">
<polygon fill="white" stroke="none" points="-4,4 -4,-400 1047.54,-400 1047.54,4 -4,4"/>
<!-- [root] google_compute_firewall.allow_http (expand) -->
<g id="node1" class="node">
<title>[root] google_compute_firewall.allow_http (expand)</title>
<polygon fill="none" stroke="black" points="855.58,-252 638.58,-252 638.58,-216 855.58,-216 855.58,-252"/>
<text text-anchor="middle" x="747.08" y="-228.95" font-family="Times New Roman,serif" font-size="14.00">google_compute_firewall.allow_http</text>
</g>
<!-- [root] provider[&quot;registry.opentofu.org/hashicorp/google&quot;] -->
<g id="node3" class="node">
<title>[root] provider[&quot;registry.opentofu.org/hashicorp/google&quot;]</title>
<polygon fill="none" stroke="black" points="593.08,-180 309.83,-162 593.08,-144 876.32,-162 593.08,-180"/>
<text text-anchor="middle" x="593.08" y="-156.95" font-family="Times New Roman,serif" font-size="14.00">provider[&quot;registry.opentofu.org/hashicorp/google&quot;]</text>
</g>
<!-- [root] google_compute_firewall.allow_http (expand)&#45;&gt;[root] provider[&quot;registry.opentofu.org/hashicorp/google&quot;] -->
<g id="edge1" class="edge">
<title>[root] google_compute_firewall.allow_http (expand)&#45;&gt;[root] provider[&quot;registry.opentofu.org/hashicorp/google&quot;]</title>
<path fill="none" stroke="black" d="M708.61,-215.52C686.85,-205.62 659.55,-193.21 636.95,-182.94"/>
<polygon fill="black" stroke="black" points="638.54,-179.82 627.99,-178.87 635.64,-186.19 638.54,-179.82"/>
</g>
<!-- [root] google_compute_instance.app (expand) -->
<g id="node2" class="node">
<title>[root] google_compute_instance.app (expand)</title>
<polygon fill="none" stroke="black" points="575.58,-252 394.58,-252 394.58,-216 575.58,-216 575.58,-252"/>
<text text-anchor="middle" x="485.08" y="-228.95" font-family="Times New Roman,serif" font-size="14.00">google_compute_instance.app</text>
</g>
<!-- [root] google_compute_instance.app (expand)&#45;&gt;[root] provider[&quot;registry.opentofu.org/hashicorp/google&quot;] -->
<g id="edge2" class="edge">
<title>[root] google_compute_instance.app (expand)&#45;&gt;[root] provider[&quot;registry.opentofu.org/hashicorp/google&quot;]</title>
<path fill="none" stroke="black" d="M512.05,-215.52C526.3,-206.28 543.93,-194.85 559.1,-185.02"/>
<polygon fill="black" stroke="black" points="560.9,-188.03 567.39,-179.65 557.09,-182.15 560.9,-188.03"/>
</g>
<!-- [root] var.zone (expand, reference) -->
<g id="node8" class="node">
<title>[root] var.zone (expand, reference)</title>
<ellipse fill="none" stroke="black" cx="593.08" cy="-90" rx="140.41" ry="18"/>
<text text-anchor="middle" x="593.08" y="-84.95" font-family="Times New Roman,serif" font-size="14.00">[root] var.zone (expand, reference)</text>
</g>
<!-- [root] provider[&quot;registry.opentofu.org/hashicorp/google&quot;]&#45;&gt;[root] var.zone (expand, reference) -->
<g id="edge7" class="edge">
<title>[root] provider[&quot;registry.opentofu.org/hashicorp/google&quot;]&#45;&gt;[root] var.zone (expand, reference)</title>
<path fill="none" stroke="black" d="M593.08,-143.7C593.08,-136.41 593.08,-127.73 593.08,-119.54"/>
<polygon fill="black" stroke="black" points="596.58,-119.62 593.08,-109.62 589.58,-119.62 596.58,-119.62"/>
</g>
<!-- [root] var.zone -->
<g id="node4" class="node">
<title>[root] var.zone</title>
<polygon fill="none" stroke="black" points="617.95,-36 562.2,-36 562.2,0 623.95,0 623.95,-30 617.95,-36"/>
<polyline fill="none" stroke="black" points="617.95,-36 617.95,-30"/>
<polyline fill="none" stroke="black" points="623.95,-30 617.95,-30"/>
<text text-anchor="middle" x="593.08" y="-12.95" font-family="Times New Roman,serif" font-size="14.00">var.zone</text>
</g>
<!-- [root] output.instance (expand) -->
<g id="node5" class="node">
<title>[root] output.instance (expand)</title>
<ellipse fill="none" stroke="black" cx="126.08" cy="-306" rx="126.08" ry="18"/>
<text text-anchor="middle" x="126.08" y="-300.95" font-family="Times New Roman,serif" font-size="14.00">[root] output.instance (expand)</text>
</g>
<!-- [root] output.instance (expand)&#45;&gt;[root] google_compute_instance.app (expand) -->
<g id="edge3" class="edge">
<title>[root] output.instance (expand)&#45;&gt;[root] google_compute_instance.app (expand)</title>
<path fill="none" stroke="black" d="M198.29,-290.92C251.67,-280.51 325.04,-266.2 384.21,-254.67"/>
<polygon fill="black" stroke="black" points="384.83,-258.11 393.98,-252.76 383.49,-251.24 384.83,-258.11"/>
</g>
<!-- [root] output.network (expand) -->
<g id="node6" class="node">
<title>[root] output.network (expand)</title>
<ellipse fill="none" stroke="black" cx="396.08" cy="-306" rx="126.08" ry="18"/>
<text text-anchor="middle" x="396.08" y="-300.95" font-family="Times New Roman,serif" font-size="14.00">[root] output.network (expand)</text>
</g>
<!-- [root] output.network (expand)&#45;&gt;[root] google_compute_instance.app (expand) -->
<g id="edge4" class="edge">
<title>[root] output.network (expand)&#45;&gt;[root] google_compute_instance.app (expand)</title>
<path fill="none" stroke="black" d="M417.62,-288.05C428.61,-279.41 442.16,-268.75 454.24,-259.26"/>
<polygon fill="black" stroke="black" points="456.23,-262.14 461.92,-253.21 451.9,-256.64 456.23,-262.14"/>
</g>
<!-- [root] provider[&quot;registry.opentofu.org/hashicorp/google&quot;] (close) -->
<g id="node7" class="node">
<title>[root] provider[&quot;registry.opentofu.org/hashicorp/google&quot;] (close)</title>
<ellipse fill="none" stroke="black" cx="792.08" cy="-306" rx="251.47" ry="18"/>
<text text-anchor="middle" x="792.08" y="-300.95" font-family="Times New Roman,serif" font-size="14.00">[root] provider[&quot;registry.opentofu.org/hashicorp/google&quot;] (close)</text>
</g>
<!-- [root] provider[&quot;registry.opentofu.org/hashicorp/google&quot;] (close)&#45;&gt;[root] google_compute_firewall.allow_http (expand) -->
<g id="edge5" class="edge">
<title>[root] provider[&quot;registry.opentofu.org/hashicorp/google&quot;] (close)&#45;&gt;[root] google_compute_firewall.allow_http (expand)</title>
<path fill="none" stroke="black" d="M780.95,-287.7C775.88,-279.81 769.77,-270.3 764.14,-261.55"/>
<polygon fill="black" stroke="black" points="767.24,-259.9 758.89,-253.38 761.35,-263.68 767.24,-259.9"/>
</g>
<!-- [root] provider[&quot;registry.opentofu.org/hashicorp/google&quot;] (close)&#45;&gt;[root] google_compute_instance.app (expand) -->
<g id="edge6" class="edge">
<title>[root] provider[&quot;registry.opentofu.org/hashicorp/google&quot;] (close)&#45;&gt;[root] google_compute_instance.app (expand)</title>
<path fill="none" stroke="black" d="M718.93,-288.32C675.1,-278.33 619.1,-265.56 572.89,-255.02"/>
<polygon fill="black" stroke="black" points="573.68,-251.61 563.15,-252.8 572.12,-258.44 573.68,-251.61"/>
</g>
<!-- [root] var.zone (expand, reference)&#45;&gt;[root] var.zone -->
<g id="edge11" class="edge">
<title>[root] var.zone (expand, reference)&#45;&gt;[root] var.zone</title>
<path fill="none" stroke="black" d="M593.08,-71.7C593.08,-64.41 593.08,-55.73 593.08,-47.54"/>
<polygon fill="black" stroke="black" points="596.58,-47.62 593.08,-37.62 589.58,-47.62 596.58,-47.62"/>
</g>
<!-- [root] root -->
<g id="node9" class="node">
<title>[root] root</title>
<ellipse fill="none" stroke="black" cx="396.08" cy="-378" rx="49.3" ry="18"/>
<text text-anchor="middle" x="396.08" y="-372.95" font-family="Times New Roman,serif" font-size="14.00">[root] root</text>
</g>
<!-- [root] root&#45;&gt;[root] output.instance (expand) -->
<g id="edge8" class="edge">
<title>[root] root&#45;&gt;[root] output.instance (expand)</title>
<path fill="none" stroke="black" d="M356.82,-366.82C314.78,-355.92 247.23,-338.41 196.05,-325.14"/>
<polygon fill="black" stroke="black" points="197.09,-321.8 186.53,-322.67 195.34,-328.57 197.09,-321.8"/>
</g>
<!-- [root] root&#45;&gt;[root] output.network (expand) -->
<g id="edge9" class="edge">
<title>[root] root&#45;&gt;[root] output.network (expand)</title>
<path fill="none" stroke="black" d="M396.08,-359.7C396.08,-352.41 396.08,-343.73 396.08,-335.54"/>
<polygon fill="black" stroke="black" points="399.58,-335.62 396.08,-325.62 392.58,-335.62 399.58,-335.62"/>
</g>
<!-- [root] root&#45;&gt;[root] provider[&quot;registry.opentofu.org/hashicorp/google&quot;] (close) -->
<g id="edge10" class="edge">
<title>[root] root&#45;&gt;[root] provider[&quot;registry.opentofu.org/hashicorp/google&quot;] (close)</title>
<path fill="none" stroke="black" d="M439.59,-369.31C499.27,-358.76 608.33,-339.48 689.4,-325.15"/>
<polygon fill="black" stroke="black" points="689.92,-328.61 699.15,-323.43 688.7,-321.72 689.92,-328.61"/>
</g>
</g>
</svg>
