<?xml version="1.0" encoding="UTF-8" standalone="no"?>
<!DOCTYPE svg PUBLIC "-//W3C//DTD SVG 1.1//EN"
 "http://www.w3.org/Graphics/SVG/1.1/DTD/svg11.dtd">
<!-- Generated by graphviz version 12.2.1 (20241206.2353)
 -->
<!-- Pages: 1 -->
<svg width="1502pt" height="404pt"
 viewBox="0.00 0.00 1501.61 404.00" xmlns="http://www.w3.org/2000/svg" xmlns:xlink="http://www.w3.org/1999/xlink">
<g id="graph0" class="graph" transform="scale(1 1) rotate(0) translate(4 400)">
<polygon fill="white" stroke="none" points="-4,4 -4,-400 1497.61,-400 1497.61,4 -4,4"/>
<!-- [root] data.http.todo (expand) -->
<g id="node1" class="node">
<title>[root] data.http.todo (expand)</title>
<polygon fill="none" stroke="black" points="836.7,-108 745.7,-108 745.7,-72 836.7,-72 836.7,-108"/>
<text text-anchor="middle" x="791.2" y="-84.95" font-family="Times New Roman,serif" font-size="14.00">data.http.todo</text>
</g>
<!-- [root] provider[&quot;registry.opentofu.org/hashicorp/http&quot;] -->
<g id="node6" class="node">
<title>[root] provider[&quot;registry.opentofu.org/hashicorp/http&quot;]</title>
<polygon fill="none" stroke="black" points="791.2,-36 523.15,-18 791.2,0 1059.25,-18 791.2,-36"/>
<text text-anchor="middle" x="791.2" y="-12.95" font-family="Times New Roman,serif" font-size="14.00">provider[&quot;registry.opentofu.org/hashicorp/http&quot;]</text>
</g>
<!-- [root] data.http.todo (expand)&#45;&gt;[root] provider[&quot;registry.opentofu.org/hashicorp/http&quot;] -->
<g id="edge1" class="edge">
<title>[root] data.http.todo (expand)&#45;&gt;[root] provider[&quot;registry.opentofu.org/hashicorp/http&quot;]</title>
<path fill="none" stroke="black" d="M791.2,-71.7C791.2,-64.41 791.2,-55.73 791.2,-47.54"/>
<polygon fill="black" stroke="black" points="794.7,-47.62 791.2,-37.62 787.7,-47.62 794.7,-47.62"/>
</g>
<!-- [root] local_file.main&#45;1 (expand) -->
<g id="node2" class="node">
<title>[root] local_file.main&#45;1 (expand)</title>
<polygon fill="none" stroke="black" points="419.08,-252 309.33,-252 309.33,-216 419.08,-216 419.08,-252"/>
<text text-anchor="middle" x="364.2" y="-228.95" font-family="Times New Roman,serif" font-size="14.00">local_file.main&#45;1</text>
</g>
<!-- [root] provider[&quot;registry.opentofu.org/hashicorp/local&quot;] -->
<g id="node7" class="node">
<title>[root] provider[&quot;registry.opentofu.org/hashicorp/local&quot;]</title>
<polygon fill="none" stroke="black" points="454.2,-108 181.09,-90 454.2,-72 727.32,-90 454.2,-108"/>
<text text-anchor="middle" x="454.2" y="-84.95" font-family="Times New Roman,serif" font-size="14.00">provider[&quot;registry.opentofu.org/hashicorp/local&quot;]</text>
</g>
<!-- [root] local_file.main&#45;1 (expand)&#45;&gt;[root] provider[&quot;registry.opentofu.org/hashicorp/local&quot;] -->
<g id="edge2" class="edge">
<title>[root] local_file.main&#45;1 (expand)&#45;&gt;[root] provider[&quot;registry.opentofu.org/hashicorp/local&quot;]</title>
<path fill="none" stroke="black" d="M364.36,-215.58C365.31,-196.58 369.13,-165.95 383.2,-144 391.19,-131.53 403.21,-120.95 415.1,-112.59"/>
<polygon fill="black" stroke="black" points="416.84,-115.64 423.27,-107.21 412.99,-109.79 416.84,-115.64"/>
</g>
<!-- [root] var.greeting (expand, reference) -->
<g id="node11" class="node">
<title>[root] var.greeting (expand, reference)</title>
<ellipse fill="none" stroke="black" cx="153.2" cy="-162" rx="153.2" ry="18"/>
<text text-anchor="middle" x="153.2" y="-156.95" font-family="Times New Roman,serif" font-size="14.00">[root] var.greeting (expand, reference)</text>
</g>
<!-- [root] local_file.main&#45;1 (expand)&#45;&gt;[root] var.greeting (expand, reference) -->
<g id="edge3" class="edge">
<title>[root] local_file.main&#45;1 (expand)&#45;&gt;[root] var.greeting (expand, reference)</title>
<path fill="none" stroke="black" d="M311.5,-215.52C281.69,-205.63 244.31,-193.22 213.35,-182.96"/>
<polygon fill="black" stroke="black" points="214.73,-179.72 204.13,-179.9 212.52,-186.37 214.73,-179.72"/>
</g>
<!-- [root] local_file.other (expand) -->
<g id="node3" class="node">
<title>[root] local_file.other (expand)</title>
<polygon fill="none" stroke="black" points="545.45,-252 446.95,-252 446.95,-216 545.45,-216 545.45,-252"/>
<text text-anchor="middle" x="496.2" y="-228.95" font-family="Times New Roman,serif" font-size="14.00">local_file.other</text>
</g>
<!-- [root] local_file.todo_data (expand) -->
<g id="node4" class="node">
<title>[root] local_file.todo_data (expand)</title>
<polygon fill="none" stroke="black" points="516.2,-180 392.2,-180 392.2,-144 516.2,-144 516.2,-180"/>
<text text-anchor="middle" x="454.2" y="-156.95" font-family="Times New Roman,serif" font-size="14.00">local_file.todo_data</text>
</g>
<!-- [root] local_file.other (expand)&#45;&gt;[root] local_file.todo_data (expand) -->
<g id="edge4" class="edge">
<title>[root] local_file.other (expand)&#45;&gt;[root] local_file.todo_data (expand)</title>
<path fill="none" stroke="black" d="M485.82,-215.7C481.14,-207.9 475.51,-198.51 470.3,-189.83"/>
<polygon fill="black" stroke="black" points="473.39,-188.18 465.24,-181.4 467.39,-191.78 473.39,-188.18"/>
</g>
<!-- [root] local_file.todo_data (expand)&#45;&gt;[root] data.http.todo (expand) -->
<g id="edge5" class="edge">
<title>[root] local_file.todo_data (expand)&#45;&gt;[root] data.http.todo (expand)</title>
<path fill="none" stroke="black" d="M516.49,-145.84C519.43,-145.2 522.35,-144.58 525.2,-144 614.94,-125.62 641.7,-129.74 734.39,-108.25"/>
<polygon fill="black" stroke="black" points="735.01,-111.7 743.94,-105.99 733.4,-104.89 735.01,-111.7"/>
</g>
<!-- [root] local_file.todo_data (expand)&#45;&gt;[root] provider[&quot;registry.opentofu.org/hashicorp/local&quot;] -->
<g id="edge6" class="edge">
<title>[root] local_file.todo_data (expand)&#45;&gt;[root] provider[&quot;registry.opentofu.org/hashicorp/local&quot;]</title>
<path fill="none" stroke="black" d="M454.2,-143.7C454.2,-136.41 454.2,-127.73 454.2,-119.54"/>
<polygon fill="black" stroke="black" points="457.7,-119.62 454.2,-109.62 450.7,-119.62 457.7,-119.62"/>
</g>
<!-- [root] local_file.todo_headers (expand) -->
<g id="node5" class="node">
<title>[root] local_file.todo_headers (expand)</title>
<polygon fill="none" stroke="black" points="676.58,-180 533.83,-180 533.83,-144 676.58,-144 676.58,-180"/>
<text text-anchor="middle" x="605.2" y="-156.95" font-family="Times New Roman,serif" font-size="14.00">local_file.todo_headers</text>
</g>
<!-- [root] local_file.todo_headers (expand)&#45;&gt;[root] data.http.todo (expand) -->
<g id="edge7" class="edge">
<title>[root] local_file.todo_headers (expand)&#45;&gt;[root] data.http.todo (expand)</title>
<path fill="none" stroke="black" d="M651.66,-143.52C676.81,-134.05 708.09,-122.28 734.65,-112.28"/>
<polygon fill="black" stroke="black" points="735.79,-115.59 743.92,-108.79 733.33,-109.04 735.79,-115.59"/>
</g>
<!-- [root] local_file.todo_headers (expand)&#45;&gt;[root] provider[&quot;registry.opentofu.org/hashicorp/local&quot;] -->
<g id="edge8" class="edge">
<title>[root] local_file.todo_headers (expand)&#45;&gt;[root] provider[&quot;registry.opentofu.org/hashicorp/local&quot;]</title>
<path fill="none" stroke="black" d="M567.49,-143.52C546.24,-133.67 519.62,-121.33 497.52,-111.08"/>
<polygon fill="black" stroke="black" points="499,-107.91 488.45,-106.88 496.05,-114.26 499,-107.91"/>
</g>
<!-- [root] var.greeting -->
<g id="node8" class="node">
<title>[root] var.greeting</title>
<polygon fill="none" stroke="black" points="157.45,-108 82.95,-108 82.95,-72 163.45,-72 163.45,-102 157.45,-108"/>
<polyline fill="none" stroke="black" points="157.45,-108 157.45,-102"/>
<polyline fill="none" stroke="black" points="163.45,-102 157.45,-102"/>
<text text-anchor="middle" x="123.2" y="-84.95" font-family="Times New Roman,serif" font-size="14.00">var.greeting</text>
</g>
<!-- [root] var.region -->
<g id="node9" class="node">
<title>[root] var.region</title>
<polygon fill="none" stroke="black" points="1077.58,-252 1012.83,-252 1012.83,-216 1083.58,-216 1083.58,-246 1077.58,-252"/>
<polyline fill="none" stroke="black" points="1077.58,-252 1077.58,-246"/>
<polyline fill="none" stroke="black" points="1083.58,-246 1077.58,-246"/>
<text text-anchor="middle" x="1048.2" y="-228.95" font-family="Times New Roman,serif" font-size="14.00">var.region</text>
</g>
<!-- [root] var.zone -->
<g id="node10" class="node">
<title>[root] var.zone</title>
<polygon fill="none" stroke="black" points="1378.08,-252 1322.33,-252 1322.33,-216 1384.08,-216 1384.08,-246 1378.08,-252"/>
<polyline fill="none" stroke="black" points="1378.08,-252 1378.08,-246"/>
<polyline fill="none" stroke="black" points="1384.08,-246 1378.08,-246"/>
<text text-anchor="middle" x="1353.2" y="-228.95" font-family="Times New Roman,serif" font-size="14.00">var.zone</text>
</g>
<!-- [root] var.greeting (expand, reference)&#45;&gt;[root] var.greeting -->
<g id="edge17" class="edge">
<title>[root] var.greeting (expand, reference)&#45;&gt;[root] var.greeting</title>
<path fill="none" stroke="black" d="M145.79,-143.7C142.55,-136.15 138.68,-127.12 135.06,-118.68"/>
<polygon fill="black" stroke="black" points="138.28,-117.31 131.13,-109.5 131.85,-120.07 138.28,-117.31"/>
</g>
<!-- [root] provider[&quot;registry.opentofu.org/hashicorp/http&quot;] (close) -->
<g id="node12" class="node">
<title>[root] provider[&quot;registry.opentofu.org/hashicorp/http&quot;] (close)</title>
<ellipse fill="none" stroke="black" cx="935.2" cy="-162" rx="240.72" ry="18"/>
<text text-anchor="middle" x="935.2" y="-156.95" font-family="Times New Roman,serif" font-size="14.00">[root] provider[&quot;registry.opentofu.org/hashicorp/http&quot;] (close)</text>
</g>
<!-- [root] provider[&quot;registry.opentofu.org/hashicorp/http&quot;] (close)&#45;&gt;[root] data.http.todo (expand) -->
<g id="edge9" class="edge">
<title>[root] provider[&quot;registry.opentofu.org/hashicorp/http&quot;] (close)&#45;&gt;[root] data.http.todo (expand)</title>
<path fill="none" stroke="black" d="M899.97,-143.88C881.11,-134.71 857.65,-123.3 837.35,-113.43"/>
<polygon fill="black" stroke="black" points="838.95,-110.32 828.43,-109.1 835.89,-116.61 838.95,-110.32"/>
</g>
<!-- [root] provider[&quot;registry.opentofu.org/hashicorp/local&quot;] (close) -->
<g id="node13" class="node">
<title>[root] provider[&quot;registry.opentofu.org/hashicorp/local&quot;] (close)</title>
<ellipse fill="none" stroke="black" cx="540.2" cy="-306" rx="244.3" ry="18"/>
<text text-anchor="middle" x="540.2" y="-300.95" font-family="Times New Roman,serif" font-size="14.00">[root] provider[&quot;registry.opentofu.org/hashicorp/local&quot;] (close)</text>
</g>
<!-- [root] provider[&quot;registry.opentofu.org/hashicorp/local&quot;] (close)&#45;&gt;[root] local_file.main&#45;1 (expand) -->
<g id="edge10" class="edge">
<title>[root] provider[&quot;registry.opentofu.org/hashicorp/local&quot;] (close)&#45;&gt;[root] local_file.main&#45;1 (expand)</title>
<path fill="none" stroke="black" d="M497.15,-287.88C473.46,-278.46 443.84,-266.67 418.57,-256.62"/>
<polygon fill="black" stroke="black" points="420.03,-253.44 409.44,-252.99 417.44,-259.94 420.03,-253.44"/>
</g>
<!-- [root] provider[&quot;registry.opentofu.org/hashicorp/local&quot;] (close)&#45;&gt;[root] local_file.other (expand) -->
<g id="edge11" class="edge">
<title>[root] provider[&quot;registry.opentofu.org/hashicorp/local&quot;] (close)&#45;&gt;[root] local_file.other (expand)</title>
<path fill="none" stroke="black" d="M529.32,-287.7C524.42,-279.9 518.52,-270.51 513.07,-261.83"/>
<polygon fill="black" stroke="black" points="516.04,-259.99 507.76,-253.39 510.12,-263.71 516.04,-259.99"/>
</g>
<!-- [root] provider[&quot;registry.opentofu.org/hashicorp/local&quot;] (close)&#45;&gt;[root] local_file.todo_headers (expand) -->
<g id="edge12" class="edge">
<title>[root] provider[&quot;registry.opentofu.org/hashicorp/local&quot;] (close)&#45;&gt;[root] local_file.todo_headers (expand)</title>
<path fill="none" stroke="black" d="M548.17,-287.59C559.29,-263.29 579.58,-218.97 592.72,-190.27"/>
<polygon fill="black" stroke="black" points="595.76,-192.04 596.74,-181.49 589.39,-189.12 595.76,-192.04"/>
</g>
<!-- [root] root -->
<g id="node14" class="node">
<title>[root] root</title>
<ellipse fill="none" stroke="black" cx="960.2" cy="-378" rx="49.3" ry="18"/>
<text text-anchor="middle" x="960.2" y="-372.95" font-family="Times New Roman,serif" font-size="14.00">[root] root</text>
</g>
<!-- [root] root&#45;&gt;[root] provider[&quot;registry.opentofu.org/hashicorp/http&quot;] (close) -->
<g id="edge13" class="edge">
<title>[root] root&#45;&gt;[root] provider[&quot;registry.opentofu.org/hashicorp/http&quot;] (close)</title>
<path fill="none" stroke="black" d="M931.81,-362.99C917.08,-354.05 900.48,-340.95 892.2,-324 870.45,-279.47 897.06,-222.46 917.04,-189.6"/>
<polygon fill="black" stroke="black" points="919.78,-191.82 922.17,-181.49 913.87,-188.08 919.78,-191.82"/>
</g>
<!-- [root] root&#45;&gt;[root] provider[&quot;registry.opentofu.org/hashicorp/local&quot;] (close) -->
<g id="edge14" class="edge">
<title>[root] root&#45;&gt;[root] provider[&quot;registry.opentofu.org/hashicorp/local&quot;] (close)</title>
<path fill="none" stroke="black" d="M916.05,-369.64C852.79,-359.1 734.42,-339.37 647.36,-324.86"/>
<polygon fill="black" stroke="black" points="648.03,-321.42 637.6,-323.23 646.88,-328.33 648.03,-321.42"/>
</g>
<!-- [root] var.region (expand, reference) -->
<g id="node15" class="node">
<title>[root] var.region (expand, reference)</title>
<ellipse fill="none" stroke="black" cx="1048.2" cy="-306" rx="146.55" ry="18"/>
<text text-anchor="middle" x="1048.2" y="-300.95" font-family="Times New Roman,serif" font-size="14.00">[root] var.region (expand, reference)</text>
</g>
<!-- [root] root&#45;&gt;[root] var.region (expand, reference) -->
<g id="edge15" class="edge">
<title>[root] root&#45;&gt;[root] var.region (expand, reference)</title>
<path fill="none" stroke="black" d="M980.17,-361.12C991.27,-352.29 1005.31,-341.12 1017.75,-331.22"/>
<polygon fill="black" stroke="black" points="1019.63,-334.2 1025.28,-325.23 1015.27,-328.72 1019.63,-334.2"/>
</g>
<!-- [root] var.zone (expand, reference) -->
<g id="node16" class="node">
<title>[root] var.zone (expand, reference)</title>
<ellipse fill="none" stroke="black" cx="1353.2" cy="-306" rx="140.41" ry="18"/>
<text text-anchor="middle" x="1353.2" y="-300.95" font-family="Times New Roman,serif" font-size="14.00">[root] var.zone (expand, reference)</text>
</g>
<!-- [root] root&#45;&gt;[root] var.zone (expand, reference) -->
<g id="edge16" class="edge">
<title>[root] root&#45;&gt;[root] var.zone (expand, reference)</title>
<path fill="none" stroke="black" d="M1003.76,-369.24C1065.79,-358.19 1181.04,-337.66 1262.19,-323.21"/>
<polygon fill="black" stroke="black" points="1262.68,-326.68 1271.91,-321.48 1261.45,-319.79 1262.68,-326.68"/>
</g>
<!-- [root] var.region (expand, reference)&#45;&gt;[root] var.region -->
<g id="edge18" class="edge">
<title>[root] var.region (expand, reference)&#45;&gt;[root] var.region</title>
<path fill="none" stroke="black" d="M1048.2,-287.7C1048.2,-280.41 1048.2,-271.73 1048.2,-263.54"/>
<polygon fill="black" stroke="black" points="1051.7,-263.62 1048.2,-253.62 1044.7,-263.62 1051.7,-263.62"/>
</g>
<!-- [root] var.zone (expand, reference)&#45;&gt;[root] var.zone -->
<g id="edge19" class="edge">
<title>[root] var.zone (expand, reference)&#45;&gt;[root] var.zone</title>
<path fill="none" stroke="black" d="M1353.2,-287.7C1353.2,-280.41 1353.2,-271.73 1353.2,-263.54"/>
<polygon fill="black" stroke="black" points="1356.7,-263.62 1353.2,-253.62 1349.7,-263.62 1356.7,-263.62"/>
</g>
</g>
</svg>
