<?xml version="1.0" encoding="UTF-8" standalone="no"?>
<!DOCTYPE svg PUBLIC "-//W3C//DTD SVG 1.1//EN"
 "http://www.w3.org/Graphics/SVG/1.1/DTD/svg11.dtd">
<!-- Generated by graphviz version 12.2.1 (20241206.2353)
 -->
<!-- Pages: 1 -->
<svg width="1732pt" height="404pt"
 viewBox="0.00 0.00 1731.75 404.00" xmlns="http://www.w3.org/2000/svg" xmlns:xlink="http://www.w3.org/1999/xlink">
<g id="graph0" class="graph" transform="scale(1 1) rotate(0) translate(4 400)">
<polygon fill="white" stroke="none" points="-4,4 -4,-400 1727.75,-400 1727.75,4 -4,4"/>
<!-- [root] data.http.todo (expand) -->
<g id="node1" class="node">
<title>[root] data.http.todo (expand)</title>
<polygon fill="none" stroke="black" points="851.7,-108 760.7,-108 760.7,-72 851.7,-72 851.7,-108"/>
<text text-anchor="middle" x="806.2" y="-84.95" font-family="Times New Roman,serif" font-size="14.00">data.http.todo</text>
</g>
<!-- [root] provider[&quot;registry.opentofu.org/hashicorp/http&quot;] -->
<g id="node8" class="node">
<title>[root] provider[&quot;registry.opentofu.org/hashicorp/http&quot;]</title>
<polygon fill="none" stroke="black" points="806.2,-36 538.15,-18 806.2,0 1074.25,-18 806.2,-36"/>
<text text-anchor="middle" x="806.2" y="-12.95" font-family="Times New Roman,serif" font-size="14.00">provider[&quot;registry.opentofu.org/hashicorp/http&quot;]</text>
</g>
<!-- [root] data.http.todo (expand)&#45;&gt;[root] provider[&quot;registry.opentofu.org/hashicorp/http&quot;] -->
<g id="edge1" class="edge">
<title>[root] data.http.todo (expand)&#45;&gt;[root] provider[&quot;registry.opentofu.org/hashicorp/http&quot;]</title>
<path fill="none" stroke="black" d="M806.2,-71.7C806.2,-64.41 806.2,-55.73 806.2,-47.54"/>
<polygon fill="black" stroke="black" points="809.7,-47.62 806.2,-37.62 802.7,-47.62 809.7,-47.62"/>
</g>
<!-- [root] google_compute_instance.app (expand) -->
<g id="node2" class="node">
<title>[root] google_compute_instance.app (expand)</title>
<polygon fill="none" stroke="black" points="1511.7,-252 1330.7,-252 1330.7,-216 1511.7,-216 1511.7,-252"/>
<text text-anchor="middle" x="1421.2" y="-228.95" font-family="Times New Roman,serif" font-size="14.00">google_compute_instance.app</text>
</g>
<!-- [root] provider[&quot;registry.opentofu.org/hashicorp/google&quot;] -->
<g id="node7" class="node">
<title>[root] provider[&quot;registry.opentofu.org/hashicorp/google&quot;]</title>
<polygon fill="none" stroke="black" points="1421.2,-180 1137.95,-162 1421.2,-144 1704.45,-162 1421.2,-180"/>
<text text-anchor="middle" x="1421.2" y="-156.95" font-family="Times New Roman,serif" font-size="14.00">provider[&quot;registry.opentofu.org/hashicorp/google&quot;]</text>
</g>
<!-- [root] google_compute_instance.app (expand)&#45;&gt;[root] provider[&quot;registry.opentofu.org/hashicorp/google&quot;] -->
<g id="edge2" class="edge">
<title>[root] google_compute_instance.app (expand)&#45;&gt;[root] provider[&quot;registry.opentofu.org/hashicorp/google&quot;]</title>
<path fill="none" stroke="black" d="M1421.2,-215.7C1421.2,-208.41 1421.2,-199.73 1421.2,-191.54"/>
<polygon fill="black" stroke="black" points="1424.7,-191.62 1421.2,-181.62 1417.7,-191.62 1424.7,-191.62"/>
</g>
<!-- [root] local_file.main&#45;1 (expand) -->
<g id="node3" class="node">
<title>[root] local_file.main&#45;1 (expand)</title>
<polygon fill="none" stroke="black" points="402.08,-252 292.33,-252 292.33,-216 402.08,-216 402.08,-252"/>
<text text-anchor="middle" x="347.2" y="-228.95" font-family="Times New Roman,serif" font-size="14.00">local_file.main&#45;1</text>
</g>
<!-- [root] provider[&quot;registry.opentofu.org/hashicorp/local&quot;] -->
<g id="node9" class="node">
<title>[root] provider[&quot;registry.opentofu.org/hashicorp/local&quot;]</title>
<polygon fill="none" stroke="black" points="469.2,-108 196.09,-90 469.2,-72 742.32,-90 469.2,-108"/>
<text text-anchor="middle" x="469.2" y="-84.95" font-family="Times New Roman,serif" font-size="14.00">provider[&quot;registry.opentofu.org/hashicorp/local&quot;]</text>
</g>
<!-- [root] local_file.main&#45;1 (expand)&#45;&gt;[root] provider[&quot;registry.opentofu.org/hashicorp/local&quot;] -->
<g id="edge3" class="edge">
<title>[root] local_file.main&#45;1 (expand)&#45;&gt;[root] provider[&quot;registry.opentofu.org/hashicorp/local&quot;]</title>
<path fill="none" stroke="black" d="M354.57,-215.6C363.16,-196.61 378.72,-165.99 398.2,-144 408.42,-132.46 421.52,-121.84 433.68,-113.18"/>
<polygon fill="black" stroke="black" points="435.64,-116.07 441.91,-107.53 431.68,-110.3 435.64,-116.07"/>
</g>
<!-- [root] var.greeting (expand, reference) -->
<g id="node13" class="node">
<title>[root] var.greeting (expand, reference)</title>
<ellipse fill="none" stroke="black" cx="153.2" cy="-162" rx="153.2" ry="18"/>
<text text-anchor="middle" x="153.2" y="-156.95" font-family="Times New Roman,serif" font-size="14.00">[root] var.greeting (expand, reference)</text>
</g>
<!-- [root] local_file.main&#45;1 (expand)&#45;&gt;[root] var.greeting (expand, reference) -->
<g id="edge4" class="edge">
<title>[root] local_file.main&#45;1 (expand)&#45;&gt;[root] var.greeting (expand, reference)</title>
<path fill="none" stroke="black" d="M298.75,-215.52C271.68,-205.75 237.82,-193.53 209.56,-183.34"/>
<polygon fill="black" stroke="black" points="211.06,-180.15 200.46,-180.05 208.68,-186.74 211.06,-180.15"/>
</g>
<!-- [root] local_file.other (expand) -->
<g id="node4" class="node">
<title>[root] local_file.other (expand)</title>
<polygon fill="none" stroke="black" points="518.45,-252 419.95,-252 419.95,-216 518.45,-216 518.45,-252"/>
<text text-anchor="middle" x="469.2" y="-228.95" font-family="Times New Roman,serif" font-size="14.00">local_file.other</text>
</g>
<!-- [root] local_file.todo_data (expand) -->
<g id="node5" class="node">
<title>[root] local_file.todo_data (expand)</title>
<polygon fill="none" stroke="black" points="531.2,-180 407.2,-180 407.2,-144 531.2,-144 531.2,-180"/>
<text text-anchor="middle" x="469.2" y="-156.95" font-family="Times New Roman,serif" font-size="14.00">local_file.todo_data</text>
</g>
<!-- [root] local_file.other (expand)&#45;&gt;[root] local_file.todo_data (expand) -->
<g id="edge5" class="edge">
<title>[root] local_file.other (expand)&#45;&gt;[root] local_file.todo_data (expand)</title>
<path fill="none" stroke="black" d="M469.2,-215.7C469.2,-208.41 469.2,-199.73 469.2,-191.54"/>
<polygon fill="black" stroke="black" points="472.7,-191.62 469.2,-181.62 465.7,-191.62 472.7,-191.62"/>
</g>
<!-- [root] local_file.todo_data (expand)&#45;&gt;[root] data.http.todo (expand) -->
<g id="edge6" class="edge">
<title>[root] local_file.todo_data (expand)&#45;&gt;[root] data.http.todo (expand)</title>
<path fill="none" stroke="black" d="M531.49,-145.84C534.43,-145.2 537.35,-144.58 540.2,-144 629.94,-125.62 656.7,-129.74 749.39,-108.25"/>
<polygon fill="black" stroke="black" points="750.01,-111.7 758.94,-105.99 748.4,-104.89 750.01,-111.7"/>
</g>
<!-- [root] local_file.todo_data (expand)&#45;&gt;[root] provider[&quot;registry.opentofu.org/hashicorp/local&quot;] -->
<g id="edge7" class="edge">
<title>[root] local_file.todo_data (expand)&#45;&gt;[root] provider[&quot;registry.opentofu.org/hashicorp/local&quot;]</title>
<path fill="none" stroke="black" d="M469.2,-143.7C469.2,-136.41 469.2,-127.73 469.2,-119.54"/>
<polygon fill="black" stroke="black" points="472.7,-119.62 469.2,-109.62 465.7,-119.62 472.7,-119.62"/>
</g>
<!-- [root] local_file.todo_headers (expand) -->
<g id="node6" class="node">
<title>[root] local_file.todo_headers (expand)</title>
<polygon fill="none" stroke="black" points="691.58,-180 548.83,-180 548.83,-144 691.58,-144 691.58,-180"/>
<text text-anchor="middle" x="620.2" y="-156.95" font-family="Times New Roman,serif" font-size="14.00">local_file.todo_headers</text>
</g>
<!-- [root] local_file.todo_headers (expand)&#45;&gt;[root] data.http.todo (expand) -->
<g id="edge8" class="edge">
<title>[root] local_file.todo_headers (expand)&#45;&gt;[root] data.http.todo (expand)</title>
<path fill="none" stroke="black" d="M666.66,-143.52C691.81,-134.05 723.09,-122.28 749.65,-112.28"/>
<polygon fill="black" stroke="black" points="750.79,-115.59 758.92,-108.79 748.33,-109.04 750.79,-115.59"/>
</g>
<!-- [root] local_file.todo_headers (expand)&#45;&gt;[root] provider[&quot;registry.opentofu.org/hashicorp/local&quot;] -->
<g id="edge9" class="edge">
<title>[root] local_file.todo_headers (expand)&#45;&gt;[root] provider[&quot;registry.opentofu.org/hashicorp/local&quot;]</title>
<path fill="none" stroke="black" d="M582.49,-143.52C561.24,-133.67 534.62,-121.33 512.52,-111.08"/>
<polygon fill="black" stroke="black" points="514,-107.91 503.45,-106.88 511.05,-114.26 514,-107.91"/>
</g>
<!-- [root] var.region (expand, reference) -->
<g id="node15" class="node">
<title>[root] var.region (expand, reference)</title>
<ellipse fill="none" stroke="black" cx="1577.2" cy="-90" rx="146.55" ry="18"/>
<text text-anchor="middle" x="1577.2" y="-84.95" font-family="Times New Roman,serif" font-size="14.00">[root] var.region (expand, reference)</text>
</g>
<!-- [root] provider[&quot;registry.opentofu.org/hashicorp/google&quot;]&#45;&gt;[root] var.region (expand, reference) -->
<g id="edge11" class="edge">
<title>[root] provider[&quot;registry.opentofu.org/hashicorp/google&quot;]&#45;&gt;[root] var.region (expand, reference)</title>
<path fill="none" stroke="black" d="M1455.05,-145.81C1476.75,-136.07 1505.25,-123.29 1529.26,-112.51"/>
<polygon fill="black" stroke="black" points="1530.52,-115.78 1538.21,-108.5 1527.65,-109.4 1530.52,-115.78"/>
</g>
<!-- [root] var.zone (expand, reference) -->
<g id="node16" class="node">
<title>[root] var.zone (expand, reference)</title>
<ellipse fill="none" stroke="black" cx="1272.2" cy="-90" rx="140.41" ry="18"/>
<text text-anchor="middle" x="1272.2" y="-84.95" font-family="Times New Roman,serif" font-size="14.00">[root] var.zone (expand, reference)</text>
</g>
<!-- [root] provider[&quot;registry.opentofu.org/hashicorp/google&quot;]&#45;&gt;[root] var.zone (expand, reference) -->
<g id="edge12" class="edge">
<title>[root] provider[&quot;registry.opentofu.org/hashicorp/google&quot;]&#45;&gt;[root] var.zone (expand, reference)</title>
<path fill="none" stroke="black" d="M1388.5,-145.64C1367.85,-135.94 1340.86,-123.26 1318.08,-112.56"/>
<polygon fill="black" stroke="black" points="1319.86,-109.52 1309.32,-108.44 1316.88,-115.86 1319.86,-109.52"/>
</g>
<!-- [root] var.greeting -->
<g id="node10" class="node">
<title>[root] var.greeting</title>
<polygon fill="none" stroke="black" points="172.45,-108 97.95,-108 97.95,-72 178.45,-72 178.45,-102 172.45,-108"/>
<polyline fill="none" stroke="black" points="172.45,-108 172.45,-102"/>
<polyline fill="none" stroke="black" points="178.45,-102 172.45,-102"/>
<text text-anchor="middle" x="138.2" y="-84.95" font-family="Times New Roman,serif" font-size="14.00">var.greeting</text>
</g>
<!-- [root] var.region -->
<g id="node11" class="node">
<title>[root] var.region</title>
<polygon fill="none" stroke="black" points="1606.58,-36 1541.83,-36 1541.83,0 1612.58,0 1612.58,-30 1606.58,-36"/>
<polyline fill="none" stroke="black" points="1606.58,-36 1606.58,-30"/>
<polyline fill="none" stroke="black" points="1612.58,-30 1606.58,-30"/>
<text text-anchor="middle" x="1577.2" y="-12.95" font-family="Times New Roman,serif" font-size="14.00">var.region</text>
</g>
<!-- [root] var.zone -->
<g id="node12" class="node">
<title>[root] var.zone</title>
<polygon fill="none" stroke="black" points="1297.08,-36 1241.33,-36 1241.33,0 1303.08,0 1303.08,-30 1297.08,-36"/>
<polyline fill="none" stroke="black" points="1297.08,-36 1297.08,-30"/>
<polyline fill="none" stroke="black" points="1303.08,-30 1297.08,-30"/>
<text text-anchor="middle" x="1272.2" y="-12.95" font-family="Times New Roman,serif" font-size="14.00">var.zone</text>
</g>
<!-- [root] var.greeting (expand, reference)&#45;&gt;[root] var.greeting -->
<g id="edge20" class="edge">
<title>[root] var.greeting (expand, reference)&#45;&gt;[root] var.greeting</title>
<path fill="none" stroke="black" d="M149.49,-143.7C147.91,-136.32 146.03,-127.52 144.25,-119.25"/>
<polygon fill="black" stroke="black" points="147.7,-118.63 142.18,-109.58 140.86,-120.1 147.7,-118.63"/>
</g>
<!-- [root] provider[&quot;registry.opentofu.org/hashicorp/google&quot;] (close) -->
<g id="node14" class="node">
<title>[root] provider[&quot;registry.opentofu.org/hashicorp/google&quot;] (close)</title>
<ellipse fill="none" stroke="black" cx="1421.2" cy="-306" rx="251.47" ry="18"/>
<text text-anchor="middle" x="1421.2" y="-300.95" font-family="Times New Roman,serif" font-size="14.00">[root] provider[&quot;registry.opentofu.org/hashicorp/google&quot;] (close)</text>
</g>
<!-- [root] provider[&quot;registry.opentofu.org/hashicorp/google&quot;] (close)&#45;&gt;[root] google_compute_instance.app (expand) -->
<g id="edge10" class="edge">
<title>[root] provider[&quot;registry.opentofu.org/hashicorp/google&quot;] (close)&#45;&gt;[root] google_compute_instance.app (expand)</title>
<path fill="none" stroke="black" d="M1421.2,-287.7C1421.2,-280.41 1421.2,-271.73 1421.2,-263.54"/>
<polygon fill="black" stroke="black" points="1424.7,-263.62 1421.2,-253.62 1417.7,-263.62 1424.7,-263.62"/>
</g>
<!-- [root] var.region (expand, reference)&#45;&gt;[root] var.region -->
<g id="edge21" class="edge">
<title>[root] var.region (expand, reference)&#45;&gt;[root] var.region</title>
<path fill="none" stroke="black" d="M1577.2,-71.7C1577.2,-64.41 1577.2,-55.73 1577.2,-47.54"/>
<polygon fill="black" stroke="black" points="1580.7,-47.62 1577.2,-37.62 1573.7,-47.62 1580.7,-47.62"/>
</g>
<!-- [root] var.zone (expand, reference)&#45;&gt;[root] var.zone -->
<g id="edge22" class="edge">
<title>[root] var.zone (expand, reference)&#45;&gt;[root] var.zone</title>
<path fill="none" stroke="black" d="M1272.2,-71.7C1272.2,-64.41 1272.2,-55.73 1272.2,-47.54"/>
<polygon fill="black" stroke="black" points="1275.7,-47.62 1272.2,-37.62 1268.7,-47.62 1275.7,-47.62"/>
</g>
<!-- [root] provider[&quot;registry.opentofu.org/hashicorp/http&quot;] (close) -->
<g id="node17" class="node">
<title>[root] provider[&quot;registry.opentofu.org/hashicorp/http&quot;] (close)</title>
<ellipse fill="none" stroke="black" cx="911.2" cy="-306" rx="240.72" ry="18"/>
<text text-anchor="middle" x="911.2" y="-300.95" font-family="Times New Roman,serif" font-size="14.00">[root] provider[&quot;registry.opentofu.org/hashicorp/http&quot;] (close)</text>
</g>
<!-- [root] provider[&quot;registry.opentofu.org/hashicorp/http&quot;] (close)&#45;&gt;[root] data.http.todo (expand) -->
<g id="edge13" class="edge">
<title>[root] provider[&quot;registry.opentofu.org/hashicorp/http&quot;] (close)&#45;&gt;[root] data.http.todo (expand)</title>
<path fill="none" stroke="black" d="M902.79,-287.85C884.62,-250.83 841.62,-163.18 819.64,-118.39"/>
<polygon fill="black" stroke="black" points="822.87,-117.03 815.32,-109.59 816.59,-120.11 822.87,-117.03"/>
</g>
<!-- [root] provider[&quot;registry.opentofu.org/hashicorp/local&quot;] (close) -->
<g id="node18" class="node">
<title>[root] provider[&quot;registry.opentofu.org/hashicorp/local&quot;] (close)</title>
<ellipse fill="none" stroke="black" cx="408.2" cy="-306" rx="244.3" ry="18"/>
<text text-anchor="middle" x="408.2" y="-300.95" font-family="Times New Roman,serif" font-size="14.00">[root] provider[&quot;registry.opentofu.org/hashicorp/local&quot;] (close)</text>
</g>
<!-- [root] provider[&quot;registry.opentofu.org/hashicorp/local&quot;] (close)&#45;&gt;[root] local_file.main&#45;1 (expand) -->
<g id="edge14" class="edge">
<title>[root] provider[&quot;registry.opentofu.org/hashicorp/local&quot;] (close)&#45;&gt;[root] local_file.main&#45;1 (expand)</title>
<path fill="none" stroke="black" d="M393.12,-287.7C386.03,-279.56 377.43,-269.69 369.6,-260.7"/>
<polygon fill="black" stroke="black" points="372.31,-258.49 363.1,-253.25 367.03,-263.08 372.31,-258.49"/>
</g>
<!-- [root] provider[&quot;registry.opentofu.org/hashicorp/local&quot;] (close)&#45;&gt;[root] local_file.other (expand) -->
<g id="edge15" class="edge">
<title>[root] provider[&quot;registry.opentofu.org/hashicorp/local&quot;] (close)&#45;&gt;[root] local_file.other (expand)</title>
<path fill="none" stroke="black" d="M423.28,-287.7C430.37,-279.56 438.97,-269.69 446.8,-260.7"/>
<polygon fill="black" stroke="black" points="449.37,-263.08 453.3,-253.25 444.09,-258.49 449.37,-263.08"/>
</g>
<!-- [root] provider[&quot;registry.opentofu.org/hashicorp/local&quot;] (close)&#45;&gt;[root] local_file.todo_headers (expand) -->
<g id="edge16" class="edge">
<title>[root] provider[&quot;registry.opentofu.org/hashicorp/local&quot;] (close)&#45;&gt;[root] local_file.todo_headers (expand)</title>
<path fill="none" stroke="black" d="M456.5,-287.9C478.94,-278.88 505.42,-266.62 527.2,-252 554.07,-233.96 580.3,-207.85 598.02,-188.57"/>
<polygon fill="black" stroke="black" points="600.41,-191.14 604.52,-181.37 595.22,-186.45 600.41,-191.14"/>
</g>
<!-- [root] root -->
<g id="node19" class="node">
<title>[root] root</title>
<ellipse fill="none" stroke="black" cx="911.2" cy="-378" rx="49.3" ry="18"/>
<text text-anchor="middle" x="911.2" y="-372.95" font-family="Times New Roman,serif" font-size="14.00">[root] root</text>
</g>
<!-- [root] root&#45;&gt;[root] provider[&quot;registry.opentofu.org/hashicorp/google&quot;] (close) -->
<g id="edge17" class="edge">
<title>[root] root&#45;&gt;[root] provider[&quot;registry.opentofu.org/hashicorp/google&quot;] (close)</title>
<path fill="none" stroke="black" d="M956.91,-370.73C1032.73,-360.32 1187.02,-339.14 1296.92,-324.06"/>
<polygon fill="black" stroke="black" points="1297.15,-327.56 1306.58,-322.73 1296.2,-320.62 1297.15,-327.56"/>
</g>
<!-- [root] root&#45;&gt;[root] provider[&quot;registry.opentofu.org/hashicorp/http&quot;] (close) -->
<g id="edge18" class="edge">
<title>[root] root&#45;&gt;[root] provider[&quot;registry.opentofu.org/hashicorp/http&quot;] (close)</title>
<path fill="none" stroke="black" d="M911.2,-359.7C911.2,-352.41 911.2,-343.73 911.2,-335.54"/>
<polygon fill="black" stroke="black" points="914.7,-335.62 911.2,-325.62 907.7,-335.62 914.7,-335.62"/>
</g>
<!-- [root] root&#45;&gt;[root] provider[&quot;registry.opentofu.org/hashicorp/local&quot;] (close) -->
<g id="edge19" class="edge">
<title>[root] root&#45;&gt;[root] provider[&quot;registry.opentofu.org/hashicorp/local&quot;] (close)</title>
<path fill="none" stroke="black" d="M865.68,-370.66C790.7,-360.23 638.79,-339.09 530.6,-324.03"/>
<polygon fill="black" stroke="black" points="531.17,-320.58 520.78,-322.67 530.21,-327.51 531.17,-320.58"/>
</g>
</g>
</svg>
