<?xml version="1.0" encoding="UTF-8" standalone="no"?>
<!DOCTYPE svg PUBLIC "-//W3C//DTD SVG 1.1//EN"
 "http://www.w3.org/Graphics/SVG/1.1/DTD/svg11.dtd">
<!-- Generated by graphviz version 12.2.1 (20241206.2353)
 -->
<!-- Pages: 1 -->
<svg width="574pt" height="332pt"
 viewBox="0.00 0.00 574.50 332.00" xmlns="http://www.w3.org/2000/svg" xmlns:xlink="http://www.w3.org/1999/xlink">
<g id="graph0" class="graph" transform="scale(1 1) rotate(0) translate(4 328)">
<polygon fill="white" stroke="none" points="-4,4 -4,-328 570.5,-328 570.5,4 -4,4"/>
<!-- [root] google_storage_bucket.foo (expand) -->
<g id="node1" class="node">
<title>[root] google_storage_bucket.foo (expand)</title>
<polygon fill="none" stroke="black" points="364.75,-108 201.75,-108 201.75,-72 364.75,-72 364.75,-108"/>
<text text-anchor="middle" x="283.25" y="-84.95" font-family="Times New Roman,serif" font-size="14.00">google_storage_bucket.foo</text>
</g>
<!-- [root] provider[&quot;registry.opentofu.org/hashicorp/google&quot;] -->
<g id="node3" class="node">
<title>[root] provider[&quot;registry.opentofu.org/hashicorp/google&quot;]</title>
<polygon fill="none" stroke="black" points="283.25,-36 0,-18 283.25,0 566.5,-18 283.25,-36"/>
<text text-anchor="middle" x="283.25" y="-12.95" font-family="Times New Roman,serif" font-size="14.00">provider[&quot;registry.opentofu.org/hashicorp/google&quot;]</text>
</g>
<!-- [root] google_storage_bucket.foo (expand)&#45;&gt;[root] provider[&quot;registry.opentofu.org/hashicorp/google&quot;] -->
<g id="edge1" class="edge">
<title>[root] google_storage_bucket.foo (expand)&#45;&gt;[root] provider[&quot;registry.opentofu.org/hashicorp/google&quot;]</title>
<path fill="none" stroke="black" d="M283.25,-71.7C283.25,-64.41 283.25,-55.73 283.25,-47.54"/>
<polygon fill="black" stroke="black" points="286.75,-47.62 283.25,-37.62 279.75,-47.62 286.75,-47.62"/>
</g>
<!-- [root] google_storage_folder.test (expand) -->
<g id="node2" class="node">
<title>[root] google_storage_folder.test (expand)</title>
<polygon fill="none" stroke="black" points="362.87,-180 203.62,-180 203.62,-144 362.87,-144 362.87,-180"/>
<text text-anchor="middle" x="283.25" y="-156.95" font-family="Times New Roman,serif" font-size="14.00">google_storage_folder.test</text>
</g>
<!-- [root] google_storage_folder.test (expand)&#45;&gt;[root] google_storage_bucket.foo (expand) -->
<g id="edge2" class="edge">
<title>[root] google_storage_folder.test (expand)&#45;&gt;[root] google_storage_bucket.foo (expand)</title>
<path fill="none" stroke="black" d="M283.25,-143.7C283.25,-136.41 283.25,-127.73 283.25,-119.54"/>
<polygon fill="black" stroke="black" points="286.75,-119.62 283.25,-109.62 279.75,-119.62 286.75,-119.62"/>
</g>
<!-- [root] provider[&quot;registry.opentofu.org/hashicorp/google&quot;] (close) -->
<g id="node4" class="node">
<title>[root] provider[&quot;registry.opentofu.org/hashicorp/google&quot;] (close)</title>
<ellipse fill="none" stroke="black" cx="283.25" cy="-234" rx="251.47" ry="18"/>
<text text-anchor="middle" x="283.25" y="-228.95" font-family="Times New Roman,serif" font-size="14.00">[root] provider[&quot;registry.opentofu.org/hashicorp/google&quot;] (close)</text>
</g>
<!-- [root] provider[&quot;registry.opentofu.org/hashicorp/google&quot;] (close)&#45;&gt;[root] google_storage_folder.test (expand) -->
<g id="edge3" class="edge">
<title>[root] provider[&quot;registry.opentofu.org/hashicorp/google&quot;] (close)&#45;&gt;[root] google_storage_folder.test (expand)</title>
<path fill="none" stroke="black" d="M283.25,-215.7C283.25,-208.41 283.25,-199.73 283.25,-191.54"/>
<polygon fill="black" stroke="black" points="286.75,-191.62 283.25,-181.62 279.75,-191.62 286.75,-191.62"/>
</g>
<!-- [root] root -->
<g id="node5" class="node">
<title>[root] root</title>
<ellipse fill="none" stroke="black" cx="283.25" cy="-306" rx="49.3" ry="18"/>
<text text-anchor="middle" x="283.25" y="-300.95" font-family="Times New Roman,serif" font-size="14.00">[root] root</text>
</g>
<!-- [root] root&#45;&gt;[root] provider[&quot;registry.opentofu.org/hashicorp/google&quot;] (close) -->
<g id="edge4" class="edge">
<title>[root] root&#45;&gt;[root] provider[&quot;registry.opentofu.org/hashicorp/google&quot;] (close)</title>
<path fill="none" stroke="black" d="M283.25,-287.7C283.25,-280.41 283.25,-271.73 283.25,-263.54"/>
<polygon fill="black" stroke="black" points="286.75,-263.62 283.25,-253.62 279.75,-263.62 286.75,-263.62"/>
</g>
</g>
</svg>
