<?xml version="1.0" encoding="UTF-8" standalone="no"?>
<!DOCTYPE svg PUBLIC "-//W3C//DTD SVG 1.1//EN"
 "http://www.w3.org/Graphics/SVG/1.1/DTD/svg11.dtd">
<!-- Generated by graphviz version 12.2.1 (20241206.2353)
 -->
<!-- Pages: 1 -->
<svg width="1366pt" height="548pt"
 viewBox="0.00 0.00 1365.67 548.00" xmlns="http://www.w3.org/2000/svg" xmlns:xlink="http://www.w3.org/1999/xlink">
<g id="graph0" class="graph" transform="scale(1 1) rotate(0) translate(4 544)">
<polygon fill="white" stroke="none" points="-4,4 -4,-544 1361.67,-544 1361.67,4 -4,4"/>
<!-- [root] module.site.google_compute_firewall.allow_http (expand) -->
<g id="node1" class="node">
<title>[root] module.site.google_compute_firewall.allow_http (expand)</title>
<polygon fill="none" stroke="black" points="1035.39,-324 750.89,-324 750.89,-288 1035.39,-288 1035.39,-324"/>
<text text-anchor="middle" x="893.14" y="-300.95" font-family="Times New Roman,serif" font-size="14.00">module.site.google_compute_firewall.allow_http</text>
</g>
<!-- [root] module.site.provider[&quot;registry.opentofu.org/hashicorp/google&quot;] -->
<g id="node3" class="node">
<title>[root] module.site.provider[&quot;registry.opentofu.org/hashicorp/google&quot;]</title>
<polygon fill="none" stroke="black" points="968.14,-252 619.75,-234 968.14,-216 1316.53,-234 968.14,-252"/>
<text text-anchor="middle" x="968.14" y="-228.95" font-family="Times New Roman,serif" font-size="14.00">module.site.provider[&quot;registry.opentofu.org/hashicorp/google&quot;]</text>
</g>
<!-- [root] module.site.google_compute_firewall.allow_http (expand)&#45;&gt;[root] module.site.provider[&quot;registry.opentofu.org/hashicorp/google&quot;] -->
<g id="edge4" class="edge">
<title>[root] module.site.google_compute_firewall.allow_http (expand)&#45;&gt;[root] module.site.provider[&quot;registry.opentofu.org/hashicorp/google&quot;]</title>
<path fill="none" stroke="black" d="M911.68,-287.7C920.96,-279.03 932.35,-268.4 942.47,-258.96"/>
<polygon fill="black" stroke="black" points="944.56,-261.8 949.48,-252.42 939.78,-256.68 944.56,-261.8"/>
</g>
<!-- [root] module.site.var.name_prefix (expand, reference) -->
<g id="node7" class="node">
<title>[root] module.site.var.name_prefix (expand, reference)</title>
<ellipse fill="none" stroke="black" cx="385.14" cy="-234" rx="216.15" ry="18"/>
<text text-anchor="middle" x="385.14" y="-228.95" font-family="Times New Roman,serif" font-size="14.00">[root] module.site.var.name_prefix (expand, reference)</text>
</g>
<!-- [root] module.site.google_compute_firewall.allow_http (expand)&#45;&gt;[root] module.site.var.name_prefix (expand, reference) -->
<g id="edge5" class="edge">
<title>[root] module.site.google_compute_firewall.allow_http (expand)&#45;&gt;[root] module.site.var.name_prefix (expand, reference)</title>
<path fill="none" stroke="black" d="M766.26,-287.52C686.13,-276.47 583.25,-262.3 504.58,-251.46"/>
<polygon fill="black" stroke="black" points="505.53,-248.06 495.15,-250.16 504.57,-254.99 505.53,-248.06"/>
</g>
<!-- [root] module.site.google_compute_instance.app (expand) -->
<g id="node2" class="node">
<title>[root] module.site.google_compute_instance.app (expand)</title>
<polygon fill="none" stroke="black" points="658.39,-324 409.89,-324 409.89,-288 658.39,-288 658.39,-324"/>
<text text-anchor="middle" x="534.14" y="-300.95" font-family="Times New Roman,serif" font-size="14.00">module.site.google_compute_instance.app</text>
</g>
<!-- [root] module.site.google_compute_instance.app (expand)&#45;&gt;[root] module.site.provider[&quot;registry.opentofu.org/hashicorp/google&quot;] -->
<g id="edge6" class="edge">
<title>[root] module.site.google_compute_instance.app (expand)&#45;&gt;[root] module.site.provider[&quot;registry.opentofu.org/hashicorp/google&quot;]</title>
<path fill="none" stroke="black" d="M642.54,-287.52C714,-275.99 806.65,-261.05 874.83,-250.05"/>
<polygon fill="black" stroke="black" points="875.17,-253.54 884.49,-248.49 874.06,-246.63 875.17,-253.54"/>
</g>
<!-- [root] module.site.google_compute_instance.app (expand)&#45;&gt;[root] module.site.var.name_prefix (expand, reference) -->
<g id="edge7" class="edge">
<title>[root] module.site.google_compute_instance.app (expand)&#45;&gt;[root] module.site.var.name_prefix (expand, reference)</title>
<path fill="none" stroke="black" d="M496.92,-287.52C477.24,-278.27 452.87,-266.82 431.91,-256.97"/>
<polygon fill="black" stroke="black" points="433.53,-253.87 422.99,-252.78 430.55,-260.2 433.53,-253.87"/>
</g>
<!-- [root] module.site.var.zone (expand, reference) -->
<g id="node9" class="node">
<title>[root] module.site.var.zone (expand, reference)</title>
<ellipse fill="none" stroke="black" cx="955.14" cy="-162" rx="186.47" ry="18"/>
<text text-anchor="middle" x="955.14" y="-156.95" font-family="Times New Roman,serif" font-size="14.00">[root] module.site.var.zone (expand, reference)</text>
</g>
<!-- [root] module.site.provider[&quot;registry.opentofu.org/hashicorp/google&quot;]&#45;&gt;[root] module.site.var.zone (expand, reference) -->
<g id="edge12" class="edge">
<title>[root] module.site.provider[&quot;registry.opentofu.org/hashicorp/google&quot;]&#45;&gt;[root] module.site.var.zone (expand, reference)</title>
<path fill="none" stroke="black" d="M964.92,-215.7C963.56,-208.32 961.92,-199.52 960.38,-191.25"/>
<polygon fill="black" stroke="black" points="963.86,-190.79 958.59,-181.59 956.98,-192.06 963.86,-190.79"/>
</g>
<!-- [root] module.site (close) -->
<g id="node4" class="node">
<title>[root] module.site (close)</title>
<ellipse fill="none" stroke="black" cx="634.14" cy="-450" rx="105.6" ry="18"/>
<text text-anchor="middle" x="634.14" y="-444.95" font-family="Times New Roman,serif" font-size="14.00">[root] module.site (close)</text>
</g>
<!-- [root] module.site (close)&#45;&gt;[root] module.site.google_compute_firewall.allow_http (expand) -->
<g id="edge1" class="edge">
<title>[root] module.site (close)&#45;&gt;[root] module.site.google_compute_firewall.allow_http (expand)</title>
<path fill="none" stroke="black" d="M662.36,-432.27C678.33,-422.38 698.39,-409.24 715.14,-396 733.39,-381.57 733.43,-372.36 753.14,-360 773.86,-347.01 798.26,-336.4 820.84,-328.19"/>
<polygon fill="black" stroke="black" points="821.71,-331.6 829.98,-324.97 819.38,-324.99 821.71,-331.6"/>
</g>
<!-- [root] module.site.output.instance (expand) -->
<g id="node5" class="node">
<title>[root] module.site.output.instance (expand)</title>
<ellipse fill="none" stroke="black" cx="534.14" cy="-378" rx="172.14" ry="18"/>
<text text-anchor="middle" x="534.14" y="-372.95" font-family="Times New Roman,serif" font-size="14.00">[root] module.site.output.instance (expand)</text>
</g>
<!-- [root] module.site (close)&#45;&gt;[root] module.site.output.instance (expand) -->
<g id="edge2" class="edge">
<title>[root] module.site (close)&#45;&gt;[root] module.site.output.instance (expand)</title>
<path fill="none" stroke="black" d="M609.93,-432.05C597.34,-423.24 581.75,-412.33 567.99,-402.7"/>
<polygon fill="black" stroke="black" points="570.26,-400.01 560.06,-397.14 566.24,-405.75 570.26,-400.01"/>
</g>
<!-- [root] module.site.output.network (expand) -->
<g id="node6" class="node">
<title>[root] module.site.output.network (expand)</title>
<ellipse fill="none" stroke="black" cx="172.14" cy="-378" rx="172.14" ry="18"/>
<text text-anchor="middle" x="172.14" y="-372.95" font-family="Times New Roman,serif" font-size="14.00">[root] module.site.output.network (expand)</text>
</g>
<!-- [root] module.site (close)&#45;&gt;[root] module.site.output.network (expand) -->
<g id="edge3" class="edge">
<title>[root] module.site (close)&#45;&gt;[root] module.site.output.network (expand)</title>
<path fill="none" stroke="black" d="M557.07,-437.32C480.78,-425.76 363.38,-407.98 278.29,-395.08"/>
<polygon fill="black" stroke="black" points="278.94,-391.64 268.53,-393.6 277.89,-398.56 278.94,-391.64"/>
</g>
<!-- [root] module.site.output.instance (expand)&#45;&gt;[root] module.site.google_compute_instance.app (expand) -->
<g id="edge8" class="edge">
<title>[root] module.site.output.instance (expand)&#45;&gt;[root] module.site.google_compute_instance.app (expand)</title>
<path fill="none" stroke="black" d="M534.14,-359.7C534.14,-352.41 534.14,-343.73 534.14,-335.54"/>
<polygon fill="black" stroke="black" points="537.64,-335.62 534.14,-325.62 530.64,-335.62 537.64,-335.62"/>
</g>
<!-- [root] module.site.output.network (expand)&#45;&gt;[root] module.site.google_compute_instance.app (expand) -->
<g id="edge9" class="edge">
<title>[root] module.site.output.network (expand)&#45;&gt;[root] module.site.google_compute_instance.app (expand)</title>
<path fill="none" stroke="black" d="M251.58,-361.64C304.75,-351.36 375.21,-337.73 432.46,-326.66"/>
<polygon fill="black" stroke="black" points="433.09,-330.1 442.24,-324.77 431.76,-323.23 433.09,-330.1"/>
</g>
<!-- [root] module.site.var.name_prefix (expand, input) -->
<g id="node10" class="node">
<title>[root] module.site.var.name_prefix (expand, input)</title>
<ellipse fill="none" stroke="black" cx="529.14" cy="-90" rx="200.8" ry="18"/>
<text text-anchor="middle" x="529.14" y="-84.95" font-family="Times New Roman,serif" font-size="14.00">[root] module.site.var.name_prefix (expand, input)</text>
</g>
<!-- [root] module.site.var.name_prefix (expand, reference)&#45;&gt;[root] module.site.var.name_prefix (expand, input) -->
<g id="edge14" class="edge">
<title>[root] module.site.var.name_prefix (expand, reference)&#45;&gt;[root] module.site.var.name_prefix (expand, input)</title>
<path fill="none" stroke="black" d="M402.8,-215.59C428.09,-190.65 474.77,-144.62 503.76,-116.03"/>
<polygon fill="black" stroke="black" points="506.05,-118.69 510.71,-109.17 501.13,-113.7 506.05,-118.69"/>
</g>
<!-- [root] module.site.provider[&quot;registry.opentofu.org/hashicorp/google&quot;] (close) -->
<g id="node8" class="node">
<title>[root] module.site.provider[&quot;registry.opentofu.org/hashicorp/google&quot;] (close)</title>
<ellipse fill="none" stroke="black" cx="1060.14" cy="-378" rx="297.53" ry="18"/>
<text text-anchor="middle" x="1060.14" y="-372.95" font-family="Times New Roman,serif" font-size="14.00">[root] module.site.provider[&quot;registry.opentofu.org/hashicorp/google&quot;] (close)</text>
</g>
<!-- [root] module.site.provider[&quot;registry.opentofu.org/hashicorp/google&quot;] (close)&#45;&gt;[root] module.site.google_compute_firewall.allow_http (expand) -->
<g id="edge10" class="edge">
<title>[root] module.site.provider[&quot;registry.opentofu.org/hashicorp/google&quot;] (close)&#45;&gt;[root] module.site.google_compute_firewall.allow_http (expand)</title>
<path fill="none" stroke="black" d="M1018.86,-359.7C996.66,-350.39 969.06,-338.82 945.38,-328.9"/>
<polygon fill="black" stroke="black" points="946.78,-325.69 936.21,-325.05 944.08,-332.15 946.78,-325.69"/>
</g>
<!-- [root] module.site.provider[&quot;registry.opentofu.org/hashicorp/google&quot;] (close)&#45;&gt;[root] module.site.google_compute_instance.app (expand) -->
<g id="edge11" class="edge">
<title>[root] module.site.provider[&quot;registry.opentofu.org/hashicorp/google&quot;] (close)&#45;&gt;[root] module.site.google_compute_instance.app (expand)</title>
<path fill="none" stroke="black" d="M940.45,-361.07C860.02,-350.37 753.85,-336.24 670.21,-325.11"/>
<polygon fill="black" stroke="black" points="670.69,-321.64 660.32,-323.79 669.77,-328.58 670.69,-321.64"/>
</g>
<!-- [root] module.site.var.zone (expand, input) -->
<g id="node12" class="node">
<title>[root] module.site.var.zone (expand, input)</title>
<ellipse fill="none" stroke="black" cx="943.14" cy="-90" rx="171.11" ry="18"/>
<text text-anchor="middle" x="943.14" y="-84.95" font-family="Times New Roman,serif" font-size="14.00">[root] module.site.var.zone (expand, input)</text>
</g>
<!-- [root] module.site.var.zone (expand, reference)&#45;&gt;[root] module.site.var.zone (expand, input) -->
<g id="edge16" class="edge">
<title>[root] module.site.var.zone (expand, reference)&#45;&gt;[root] module.site.var.zone (expand, input)</title>
<path fill="none" stroke="black" d="M952.17,-143.7C950.91,-136.32 949.4,-127.52 947.98,-119.25"/>
<polygon fill="black" stroke="black" points="951.47,-118.86 946.33,-109.6 944.57,-120.04 951.47,-118.86"/>
</g>
<!-- [root] module.site (expand) -->
<g id="node11" class="node">
<title>[root] module.site (expand)</title>
<ellipse fill="none" stroke="black" cx="724.14" cy="-18" rx="113.28" ry="18"/>
<text text-anchor="middle" x="724.14" y="-12.95" font-family="Times New Roman,serif" font-size="14.00">[root] module.site (expand)</text>
</g>
<!-- [root] module.site.var.name_prefix (expand, input)&#45;&gt;[root] module.site (expand) -->
<g id="edge13" class="edge">
<title>[root] module.site.var.name_prefix (expand, input)&#45;&gt;[root] module.site (expand)</title>
<path fill="none" stroke="black" d="M576.34,-72.05C604.35,-62 639.98,-49.21 669.24,-38.71"/>
<polygon fill="black" stroke="black" points="670.06,-42.13 678.29,-35.46 667.69,-35.54 670.06,-42.13"/>
</g>
<!-- [root] module.site.var.zone (expand, input)&#45;&gt;[root] module.site (expand) -->
<g id="edge15" class="edge">
<title>[root] module.site.var.zone (expand, input)&#45;&gt;[root] module.site (expand)</title>
<path fill="none" stroke="black" d="M891.24,-72.41C858.94,-62.09 817.29,-48.77 783.65,-38.02"/>
<polygon fill="black" stroke="black" points="785.07,-34.8 774.48,-35.09 782.94,-41.47 785.07,-34.8"/>
</g>
<!-- [root] root -->
<g id="node13" class="node">
<title>[root] root</title>
<ellipse fill="none" stroke="black" cx="701.14" cy="-522" rx="49.3" ry="18"/>
<text text-anchor="middle" x="701.14" y="-516.95" font-family="Times New Roman,serif" font-size="14.00">[root] root</text>
</g>
<!-- [root] root&#45;&gt;[root] module.site (close) -->
<g id="edge17" class="edge">
<title>[root] root&#45;&gt;[root] module.site (close)</title>
<path fill="none" stroke="black" d="M685.6,-504.76C677.55,-496.35 667.53,-485.89 658.48,-476.44"/>
<polygon fill="black" stroke="black" points="661.02,-474.02 651.57,-469.22 655.96,-478.86 661.02,-474.02"/>
</g>
<!-- [root] root&#45;&gt;[root] module.site.provider[&quot;registry.opentofu.org/hashicorp/google&quot;] (close) -->
<g id="edge18" class="edge">
<title>[root] root&#45;&gt;[root] module.site.provider[&quot;registry.opentofu.org/hashicorp/google&quot;] (close)</title>
<path fill="none" stroke="black" d="M733.63,-508.15C795.45,-483.7 930.55,-430.26 1006.16,-400.35"/>
<polygon fill="black" stroke="black" points="1007,-403.78 1015.01,-396.85 1004.43,-397.27 1007,-403.78"/>
</g>
</g>
</svg>
